<?xml version="1.0" encoding="UTF-8"?>
<svg id="a" data-name="Layer 1" xmlns="http://www.w3.org/2000/svg" viewBox="0 0 500 400">
  <defs>
    <style>
      .b {
        fill: #0d2a3f;
      }

      .b, .c, .d, .e, .f {
        stroke-width: 0px;
      }

      .c {
        fill: #428ae2;
      }

      .d {
        fill: #153e68;
      }

      .e {
        fill: #52a4ef;
      }

      .f {
        fill: #91bce2;
      }
    </style>
  </defs>
  <polygon class="f" points="225 125 225 200 200 200 200 150 150 150 150 125 225 125"/>
  <polygon class="f" points="225 25 225 100 200 100 200 50 150 50 150 25 225 25"/>
  <polygon class="f" points="375 75 375 150 350 150 350 100 300 100 300 75 375 75"/>
  <polygon class="f" points="325 175 325 250 300 250 300 200 250 200 250 175 325 175"/>
  <polygon class="f" points="175 175 175 275 150 275 150 200 75 200 75 175 175 175"/>
  <polygon class="f" points="125 225 125 275 100 275 100 250 75 250 75 225 125 225"/>
  <polygon class="f" points="300 250 300 300 275 300 275 275 250 275 250 250 300 250"/>
  <polygon class="d" points="150 200 150 300 125 300 125 225 50 225 50 200 150 200"/>
  <polygon class="d" points="100 250 100 300 75 300 75 275 50 275 50 250 100 250"/>
  <polygon class="d" points="250 0 250 50 225 50 225 25 200 25 200 0 250 0"/>
  <polygon class="d" points="75 75 75 125 50 125 50 100 25 100 25 75 75 75"/>
  <polygon class="d" points="375 200 375 250 350 250 350 225 325 225 325 200 375 200"/>
  <polygon class="d" points="250 250 250 300 225 300 225 275 200 275 200 250 250 250"/>
  <polygon class="d" points="300 100 300 150 275 150 275 125 250 125 250 100 300 100"/>
  <polygon class="d" points="250 200 250 250 225 250 225 225 200 225 200 200 250 200"/>
  <polygon class="e" points="200 150 200 200 175 200 175 175 150 175 150 150 200 150"/>
  <polygon class="e" points="150 100 150 150 125 150 125 125 100 125 100 100 150 100"/>
  <polygon class="e" points="250 100 250 150 225 150 225 125 200 125 200 100 250 100"/>
  <polygon class="e" points="350 150 350 200 325 200 325 175 300 175 300 150 350 150"/>
  <polygon class="c" points="200 75 200 125 175 125 175 100 150 100 150 75 125 75 125 50 175 50 175 75 200 75"/>
  <rect class="b" x="125" y="325" width="25" height="25"/>
  <rect class="b" x="200" y="325" width="25" height="25"/>
  <rect class="b" x="250" y="125" width="25" height="25"/>
  <rect class="b" x="275" y="200" width="25" height="25"/>
  <rect class="b" y="200" width="25" height="25"/>
  <rect class="b" x="125" y="375" width="25" height="25"/>
</svg>