<?xml version="1.0" encoding="UTF-8"?>
<svg id="a" data-name="grid" xmlns="http://www.w3.org/2000/svg" viewBox="0 0 650 475">
  <defs>
    <style>
      .c {
        stroke-width: 0px;
      }

      .d {
        fill: #3ca7dd;
      }

      .d, .e, .f, .g {
        stroke: #000;
        stroke-miterlimit: 10;
        stroke-width: 3px;
      }

      .e {
        fill: none;
      }

      .f {
        fill: #81a5cc;
      }

      .g {
        fill: #204bc6;
      }
    </style>
  </defs>
  <g>
    <path class="c" d="m29.91,106.6v10.15h11.73v-10.15h3.17v24.26h-3.17v-11.37h-11.73v11.37h-3.13v-24.26h3.13Z"/>
    <path class="c" d="m54.86,109.26h-7.38v-2.66h17.96v2.66h-7.42v21.6h-3.17v-21.6Z"/>
    <path class="c" d="m88.59,120.21c-.18-3.38-.4-7.45-.36-10.47h-.11c-.83,2.84-1.84,5.87-3.06,9.21l-4.28,11.77h-2.38l-3.92-11.55c-1.15-3.42-2.12-6.55-2.81-9.43h-.07c-.07,3.02-.25,7.09-.47,10.73l-.65,10.4h-2.99l1.69-24.26h4l4.14,11.73c1.01,2.99,1.84,5.65,2.45,8.17h.11c.61-2.45,1.48-5.11,2.56-8.17l4.32-11.73h4l1.51,24.26h-3.06l-.61-10.65Z"/>
    <path class="c" d="m97.08,106.6h3.13v21.63h10.37v2.63h-13.5v-24.26Z"/>
  </g>
  <g>
    <path class="c" d="m32.18,75.56v-10.29l-7.67-13.97h3.56l3.42,6.69c.94,1.84,1.66,3.31,2.41,5h.07c.68-1.58,1.51-3.17,2.45-5l3.49-6.69h3.56l-8.13,13.93v10.33h-3.17Z"/>
    <path class="c" d="m59.18,66.7c0,6.44-4.46,9.25-8.67,9.25-4.72,0-8.35-3.46-8.35-8.96,0-5.83,3.82-9.25,8.64-9.25s8.39,3.64,8.39,8.96Zm-13.82.18c0,3.82,2.2,6.69,5.29,6.69s5.29-2.84,5.29-6.77c0-2.95-1.48-6.69-5.22-6.69s-5.36,3.46-5.36,6.77Z"/>
    <path class="c" d="m77.75,70.81c0,1.8.04,3.38.14,4.75h-2.81l-.18-2.84h-.07c-.83,1.4-2.66,3.24-5.76,3.24-2.74,0-6.01-1.51-6.01-7.63v-10.19h3.17v9.65c0,3.31,1.01,5.54,3.89,5.54,2.12,0,3.6-1.48,4.18-2.88.18-.47.29-1.04.29-1.62v-10.69h3.17v12.67Z"/>
    <path class="c" d="m83.01,63.57c0-2.05-.04-3.82-.14-5.44h2.77l.11,3.42h.14c.79-2.34,2.7-3.82,4.82-3.82.36,0,.61.04.9.11v2.99c-.32-.07-.65-.11-1.08-.11-2.23,0-3.82,1.69-4.25,4.07-.07.43-.14.94-.14,1.48v9.29h-3.13v-11.99Z"/>
    <path class="c" d="m102.09,71.74c1.4.86,3.46,1.58,5.62,1.58,3.2,0,5.08-1.69,5.08-4.14,0-2.27-1.3-3.56-4.57-4.82-3.96-1.4-6.41-3.46-6.41-6.88,0-3.78,3.13-6.59,7.85-6.59,2.48,0,4.28.58,5.36,1.19l-.86,2.56c-.79-.43-2.41-1.15-4.61-1.15-3.31,0-4.57,1.98-4.57,3.64,0,2.27,1.48,3.38,4.82,4.68,4.1,1.58,6.19,3.56,6.19,7.13,0,3.74-2.77,6.98-8.49,6.98-2.34,0-4.9-.68-6.19-1.55l.79-2.63Z"/>
    <path class="c" d="m123.69,53.24c.04,1.08-.76,1.94-2.02,1.94-1.12,0-1.91-.86-1.91-1.94s.83-1.98,1.98-1.98,1.94.86,1.94,1.98Zm-3.53,22.32v-17.42h3.17v17.42h-3.17Z"/>
    <path class="c" d="m132.4,53.13v5h4.54v2.41h-4.54v9.4c0,2.16.61,3.38,2.38,3.38.83,0,1.44-.11,1.84-.22l.14,2.38c-.61.25-1.58.43-2.81.43-1.48,0-2.66-.47-3.42-1.33-.9-.94-1.22-2.48-1.22-4.54v-9.5h-2.7v-2.41h2.7v-4.18l3.1-.83Z"/>
    <path class="c" d="m142.05,67.42c.07,4.28,2.81,6.05,5.98,6.05,2.27,0,3.64-.4,4.82-.9l.54,2.27c-1.12.5-3.02,1.08-5.8,1.08-5.36,0-8.57-3.53-8.57-8.78s3.1-9.4,8.17-9.4c5.69,0,7.2,5,7.2,8.21,0,.65-.07,1.15-.11,1.48h-12.24Zm9.29-2.27c.04-2.02-.83-5.15-4.39-5.15-3.2,0-4.61,2.95-4.86,5.15h9.25Z"/>
    <path class="c" d="m169.19,51.3v24.26h-3.13v-24.26h3.13Z"/>
    <path class="c" d="m174.92,62.85c0-1.8-.04-3.28-.14-4.72h2.81l.18,2.88h.07c.86-1.66,2.88-3.28,5.76-3.28,2.41,0,6.16,1.44,6.16,7.42v10.4h-3.17v-10.04c0-2.81-1.04-5.15-4.03-5.15-2.09,0-3.71,1.48-4.25,3.24-.14.4-.22.94-.22,1.48v10.47h-3.17v-12.71Z"/>
  </g>
  <g>
    <path class="c" d="m43.73,185.37c-1.15.58-3.46,1.15-6.41,1.15-6.84,0-11.99-4.32-11.99-12.27s5.15-12.74,12.67-12.74c3.02,0,4.93.65,5.76,1.08l-.76,2.56c-1.19-.58-2.88-1.01-4.9-1.01-5.69,0-9.47,3.64-9.47,10.01,0,5.94,3.42,9.75,9.32,9.75,1.91,0,3.85-.4,5.11-1.01l.65,2.48Z"/>
    <path class="c" d="m47.23,182.35c1.4.86,3.46,1.58,5.62,1.58,3.2,0,5.08-1.69,5.08-4.14,0-2.27-1.3-3.56-4.57-4.82-3.96-1.4-6.41-3.46-6.41-6.88,0-3.78,3.13-6.59,7.85-6.59,2.48,0,4.28.58,5.36,1.19l-.86,2.56c-.79-.43-2.41-1.15-4.61-1.15-3.31,0-4.57,1.98-4.57,3.64,0,2.27,1.48,3.38,4.82,4.68,4.1,1.58,6.19,3.56,6.19,7.13,0,3.74-2.77,6.98-8.49,6.98-2.34,0-4.9-.68-6.19-1.55l.79-2.63Z"/>
    <path class="c" d="m64.97,182.35c1.4.86,3.46,1.58,5.62,1.58,3.2,0,5.08-1.69,5.08-4.14,0-2.27-1.3-3.56-4.57-4.82-3.96-1.4-6.41-3.46-6.41-6.88,0-3.78,3.13-6.59,7.85-6.59,2.48,0,4.28.58,5.36,1.19l-.86,2.56c-.79-.43-2.41-1.15-4.61-1.15-3.31,0-4.57,1.98-4.57,3.64,0,2.27,1.48,3.38,4.82,4.68,4.1,1.58,6.19,3.56,6.19,7.13,0,3.74-2.77,6.98-8.49,6.98-2.34,0-4.9-.68-6.19-1.55l.79-2.63Z"/>
  </g>
  <g>
    <path class="c" d="m31.75,217.2h3.13v16.23c0,6.44-3.17,8.42-7.34,8.42-1.15,0-2.56-.25-3.35-.58l.47-2.56c.65.25,1.58.47,2.63.47,2.81,0,4.46-1.26,4.46-6.01v-15.98Z"/>
    <path class="c" d="m49.64,241.46l-.25-2.2h-.11c-.97,1.37-2.84,2.59-5.33,2.59-3.53,0-5.33-2.48-5.33-5,0-4.21,3.74-6.52,10.47-6.48v-.36c0-1.44-.4-4.03-3.96-4.03-1.62,0-3.31.5-4.54,1.3l-.72-2.09c1.44-.94,3.53-1.55,5.72-1.55,5.33,0,6.62,3.64,6.62,7.13v6.52c0,1.51.07,2.99.29,4.18h-2.88Zm-.47-8.89c-3.46-.07-7.38.54-7.38,3.92,0,2.05,1.37,3.02,2.99,3.02,2.27,0,3.71-1.44,4.21-2.92.11-.32.18-.68.18-1.01v-3.02Z"/>
    <path class="c" d="m58.28,224.04l3.42,9.79c.58,1.58,1.04,3.02,1.4,4.46h.11c.4-1.44.9-2.88,1.48-4.46l3.38-9.79h3.31l-6.84,17.42h-3.02l-6.62-17.42h3.38Z"/>
    <path class="c" d="m83.87,241.46l-.25-2.2h-.11c-.97,1.37-2.84,2.59-5.33,2.59-3.53,0-5.33-2.48-5.33-5,0-4.21,3.74-6.52,10.47-6.48v-.36c0-1.44-.4-4.03-3.96-4.03-1.62,0-3.31.5-4.54,1.3l-.72-2.09c1.44-.94,3.53-1.55,5.72-1.55,5.33,0,6.62,3.64,6.62,7.13v6.52c0,1.51.07,2.99.29,4.18h-2.88Zm-.47-8.89c-3.46-.07-7.38.54-7.38,3.92,0,2.05,1.37,3.02,2.99,3.02,2.27,0,3.71-1.44,4.21-2.92.11-.32.18-.68.18-1.01v-3.02Z"/>
    <path class="c" d="m91.25,237.65c1.4.86,3.46,1.58,5.62,1.58,3.2,0,5.08-1.69,5.08-4.14,0-2.27-1.3-3.56-4.57-4.82-3.96-1.4-6.41-3.46-6.41-6.88,0-3.78,3.13-6.59,7.85-6.59,2.48,0,4.28.58,5.36,1.19l-.86,2.56c-.79-.43-2.41-1.15-4.61-1.15-3.31,0-4.57,1.98-4.57,3.64,0,2.27,1.48,3.38,4.82,4.68,4.1,1.58,6.19,3.56,6.19,7.13,0,3.74-2.77,6.98-8.49,6.98-2.34,0-4.9-.68-6.19-1.55l.79-2.63Z"/>
    <path class="c" d="m121.96,240.81c-.83.43-2.66,1.01-5,1.01-5.26,0-8.68-3.56-8.68-8.89s3.67-9.25,9.36-9.25c1.87,0,3.53.47,4.39.9l-.72,2.45c-.76-.43-1.94-.83-3.67-.83-4,0-6.16,2.95-6.16,6.59,0,4.03,2.59,6.52,6.05,6.52,1.8,0,2.99-.47,3.89-.86l.54,2.38Z"/>
    <path class="c" d="m125.67,229.48c0-2.05-.04-3.82-.14-5.44h2.77l.11,3.42h.14c.79-2.34,2.7-3.82,4.82-3.82.36,0,.61.04.9.11v2.99c-.32-.07-.65-.11-1.08-.11-2.23,0-3.82,1.69-4.25,4.07-.07.43-.14.94-.14,1.48v9.29h-3.13v-11.99Z"/>
    <path class="c" d="m141.11,219.14c.04,1.08-.76,1.94-2.02,1.94-1.12,0-1.91-.86-1.91-1.94s.83-1.98,1.98-1.98,1.94.86,1.94,1.98Zm-3.53,22.32v-17.42h3.17v17.42h-3.17Z"/>
    <path class="c" d="m146.01,229.73c0-2.23-.07-4.03-.14-5.69h2.84l.14,2.99h.07c1.3-2.12,3.35-3.38,6.19-3.38,4.21,0,7.38,3.56,7.38,8.85,0,6.26-3.82,9.36-7.92,9.36-2.3,0-4.32-1.01-5.36-2.74h-.07v9.47h-3.13v-18.86Zm3.13,4.64c0,.47.07.9.14,1.3.58,2.2,2.48,3.71,4.75,3.71,3.35,0,5.29-2.74,5.29-6.73,0-3.49-1.84-6.48-5.18-6.48-2.16,0-4.18,1.55-4.79,3.92-.11.4-.22.86-.22,1.3v2.99Z"/>
    <path class="c" d="m170.31,219.04v5h4.54v2.41h-4.54v9.4c0,2.16.61,3.38,2.38,3.38.83,0,1.44-.11,1.84-.22l.14,2.38c-.61.25-1.58.43-2.81.43-1.48,0-2.66-.47-3.42-1.33-.9-.94-1.22-2.48-1.22-4.54v-9.5h-2.7v-2.41h2.7v-4.18l3.1-.83Z"/>
  </g>
  <rect class="d" x="225" y="50" width="387.5" height="25"/>
  <rect class="e" x="525" y="75" width="87.5" height="350"/>
  <rect class="e" x="250" y="100" width="75" height="50"/>
  <rect class="e" x="225" y="75" width="387.5" height="350"/>
  <polygon class="f" points="399.42 275.58 350 325 448.85 325 399.42 275.58"/>
  <circle class="f" cx="400" cy="375" r="25"/>
  <circle class="g" cx="550" cy="150" r="12.5"/>
  <line class="e" x1="350" y1="175" x2="450" y2="175"/>
  <line class="e" x1="300" y1="225" x2="500" y2="225"/>
  <line class="e" x1="362.5" y1="187.5" x2="437.5" y2="187.5"/>
  <line class="e" x1="237.5" y1="62.5" x2="312.5" y2="62.5"/>
  <line class="e" x1="387.5" y1="62.5" x2="425" y2="62.5"/>
  <line class="e" x1="462.5" y1="62.5" x2="500" y2="62.5"/>
  <line class="e" x1="537.5" y1="62.5" x2="575" y2="62.5"/>
  <line class="e" x1="575" y1="150" x2="600" y2="150"/>
  <circle class="g" cx="550" cy="212.5" r="12.5"/>
  <line class="e" x1="575" y1="212.5" x2="600" y2="212.5"/>
  <circle class="g" cx="550" cy="275" r="12.5"/>
  <line class="e" x1="575" y1="275" x2="600" y2="275"/>
  <circle class="g" cx="550" cy="337.5" r="12.5"/>
  <line class="e" x1="575" y1="337.5" x2="600" y2="337.5"/>
  <line class="e" x1="375" y1="200" x2="425" y2="200"/>
  <line class="e" x1="375" y1="237.5" x2="425" y2="237.5"/>
  <line class="e" x1="375" y1="250" x2="425" y2="250"/>
  <line class="e" x1="375" y1="175" x2="425" y2="175"/>
  <path class="e" d="m182.56,312.79c-50,37.5-100-12.5-100-12.5"/>
  <polyline class="e" points="160.17 305.39 184.29 311.97 177.72 336.09"/>
</svg>