<?xml version="1.0" encoding="UTF-8"?>
<svg id="a" data-name="grid" xmlns="http://www.w3.org/2000/svg" viewBox="0 0 365.91 412.59">
  <defs>
    <style>
      .c {
        fill: #6b94ce;
      }

      .c, .d, .e, .f, .g, .h, .i, .j, .k, .l, .m, .n {
        stroke-width: 0px;
      }

      .d {
        fill: #63ea63;
      }

      .e {
        fill: #423915;
      }

      .f {
        fill: #aff9af;
      }

      .g {
        fill: #7ce57c;
      }

      .h {
        fill: #27c127;
      }

      .i {
        fill: #5bb25b;
      }

      .j {
        fill: #5dd15d;
      }

      .k {
        fill: #83d683;
      }

      .l {
        fill: #5cea5c;
      }

      .m {
        fill: #99e099;
      }

      .n {
        fill: #6fb56f;
      }
    </style>
  </defs>
  <polygon class="e" points="112.85 210.58 112.85 210.77 62.85 210.77 37.85 185.77 62.51 185.77 62.85 186.11 62.85 185.77 88.08 185.77 89.61 187.31 112.85 210.58"/>
  <polygon class="e" points="194.28 327.2 194.28 327.39 144.28 327.39 119.28 302.39 143.94 302.39 144.28 302.73 144.28 302.39 169.51 302.39 194.28 327.2"/>
  <polygon class="e" points="192.73 123.73 192.73 123.92 142.73 123.92 117.73 98.92 142.39 98.92 142.73 99.26 142.73 98.92 167.96 98.92 192.73 123.73"/>
  <path class="c" d="m194.28,327.39h-25v.57l-.56-.57h-24.44v-.2l-24.77-24.8h-.23v49.86l.14.14,24.86,24.89.11.11h49.89v-24.37l-.63-.63h.63v-25Zm-25,25v-.16l.16.16h-.16Z"/>
  <polygon class="g" points="128.77 287.72 161.38 287.72 161.38 312.72 128.77 287.72"/>
  <polygon class="i" points="132.42 237.72 161.38 237.72 161.38 262.72 132.42 237.72"/>
  <polygon class="d" points="161.38 287.72 161.38 262.72 194.28 262.72 161.38 287.72"/>
  <polygon class="f" points="161.38 237.72 161.38 212.72 190.44 212.72 161.38 237.72"/>
  <polygon class="g" points="75.35 201.57 75.35 176.57 100.35 176.57 75.35 201.57"/>
  <polygon class="h" points="74.14 175.77 74.14 150.77 99.14 150.77 74.14 175.77"/>
  <polygon class="l" points="75.35 145.77 75.35 120.77 100.35 120.77 75.35 145.77"/>
  <polygon class="k" points="74.14 115.77 74.14 90.77 99.14 90.77 74.14 115.77"/>
  <polygon class="g" points="157.01 108.95 167.73 86.37 122.57 64.92 157.01 108.95"/>
  <polygon class="g" points="145.91 86.45 165.91 71.45 135.91 31.45 145.91 86.45"/>
  <polygon class="g" points="150.23 55 170.23 40 140.23 0 150.23 55"/>
  <polygon class="g" points="50.35 99.53 75.35 99.53 75.35 124.53 50.35 99.53"/>
  <polygon class="e" points="96.04 362.4 96.04 362.59 46.04 362.59 21.04 337.59 45.7 337.59 46.04 337.93 46.04 337.59 71.27 337.59 74.5 340.83 96.04 362.4"/>
  <polygon class="n" points="50.35 125.15 75.35 125.15 75.35 150.15 50.35 125.15"/>
  <polygon class="g" points="50.35 145.8 75.35 145.8 75.35 170.8 50.35 145.8"/>
  <polygon class="g" points="50.35 170.8 75.35 170.8 75.35 195.8 50.35 170.8"/>
  <path class="c" d="m62.85,210.77l-25-25v74.67l.33.33,24.67,24.7.3.3h49.7v-75h-50Zm0,50.31l-.31-.31h.31v.31Z"/>
  <polygon class="c" points="325.33 282.56 325.33 357.56 250.33 357.56 200.33 307.56 200.33 232.56 250.33 282.56 325.33 282.56"/>
  <polygon class="e" points="325.33 282.56 250.33 282.56 200.33 232.56 275.33 232.56 325.33 282.56"/>
  <polygon class="g" points="277.83 214.54 277.83 264.54 252.83 264.54 177.83 189.54 252.83 189.54 277.83 214.54"/>
  <polygon class="m" points="265.91 192.89 265.91 242.89 290.91 242.89 365.91 167.89 290.91 167.89 265.91 192.89"/>
  <polygon class="c" points="192.73 123.92 192.73 173.92 142.73 173.92 117.73 148.92 117.73 98.92 142.73 123.92 192.73 123.92"/>
  <polygon class="g" points="60.32 347.92 60.32 322.92 110.32 322.92 60.32 347.92"/>
  <polygon class="g" points="59.19 323.56 54.05 299.09 0 310.45 59.19 323.56"/>
  <polygon class="m" points="60.95 341.15 53.54 317.27 5.79 332.07 60.95 341.15"/>
  <polygon class="j" points="59.26 328.64 58.54 303.65 110.46 302.17 59.26 328.64"/>
  <polygon class="c" points="96.04 362.59 96.04 412.59 46.04 412.59 21.04 387.59 21.04 337.59 46.04 362.59 96.04 362.59"/>
</svg>