<?xml version="1.0" encoding="UTF-8"?>
<svg id="a" data-name="grid" xmlns="http://www.w3.org/2000/svg" viewBox="0 0 360.63 395.18">
  <defs>
    <style>
      .c {
        fill: #6b94ce;
      }

      .c, .d, .e, .f, .g, .h, .i, .j, .k, .l, .m, .n, .o, .p {
        stroke-width: 0px;
      }

      .d {
        fill: #63ea63;
      }

      .e {
        fill: #423915;
      }

      .f {
        fill: #53d353;
      }

      .g {
        fill: #aff9af;
      }

      .h {
        fill: #7ce57c;
      }

      .i {
        fill: #27c127;
      }

      .j {
        fill: #85c185;
      }

      .k {
        fill: #5bb25b;
      }

      .l {
        fill: #5dd15d;
      }

      .m {
        fill: #83d683;
      }

      .n {
        fill: #5cea5c;
      }

      .o {
        fill: #99e099;
      }

      .p {
        fill: #6fb56f;
      }
    </style>
  </defs>
  <polygon class="e" points="360.63 285.05 360.63 285.24 310.63 285.24 285.63 260.24 310.29 260.24 310.63 260.58 310.63 260.24 335.86 260.24 337.39 261.78 360.63 285.05"/>
  <polygon class="e" points="75 157.55 75 157.74 25 157.74 0 132.74 24.66 132.74 25 133.08 25 132.74 50.23 132.74 75 157.55"/>
  <path class="c" d="m75,157.74h-25v.57l-.56-.57h-24.44v-.2L.23,132.74h-.23v49.86l.14.14,24.86,24.89.11.11h49.89v-24.37l-.63-.63h.63v-25Zm-25,25v-.16l.16.16h-.16Z"/>
  <polygon class="h" points="9.49 118.07 42.1 118.07 42.1 143.07 9.49 118.07"/>
  <polygon class="k" points="13.14 68.07 42.1 68.07 42.1 93.07 13.14 68.07"/>
  <polygon class="e" points="147.11 283.84 147.11 284.03 97.11 284.03 72.11 259.03 96.77 259.03 97.11 259.37 97.11 259.03 122.34 259.03 147.11 283.84"/>
  <polygon class="d" points="42.1 118.07 42.1 93.07 75 93.07 42.1 118.07"/>
  <polygon class="h" points="323.13 276.04 323.13 251.04 348.13 251.04 323.13 276.04"/>
  <polygon class="i" points="321.92 250.24 321.92 225.24 346.92 225.24 321.92 250.24"/>
  <polygon class="n" points="323.13 220.24 323.13 195.24 348.13 195.24 323.13 220.24"/>
  <polygon class="n" points="323.13 130.24 323.13 105.24 348.13 105.24 323.13 130.24"/>
  <polygon class="m" points="321.92 190.24 321.92 165.24 346.92 165.24 321.92 190.24"/>
  <polygon class="m" points="323.13 165.24 323.13 140.24 348.13 140.24 323.13 165.24"/>
  <polygon class="h" points="298.13 174 323.13 174 323.13 199 298.13 174"/>
  <polygon class="h" points="297.82 145.54 322.82 145.54 322.82 170.54 297.82 145.54"/>
  <polygon class="g" points="42.1 68.07 42.1 43.07 71.16 43.07 42.1 68.07"/>
  <polygon class="p" points="298.13 199.62 323.13 199.62 323.13 224.62 298.13 199.62"/>
  <polygon class="p" points="298.13 122.76 323.13 122.76 323.13 147.76 298.13 122.76"/>
  <polygon class="e" points="262.75 344.99 262.75 345.18 212.75 345.18 187.75 320.18 212.41 320.18 212.75 320.52 212.75 320.18 237.98 320.18 241.21 323.42 262.75 344.99"/>
  <polygon class="h" points="111.38 269.05 122.11 246.47 76.94 225.02 111.38 269.05"/>
  <polygon class="h" points="100.29 246.55 120.29 231.55 90.29 191.55 100.29 246.55"/>
  <polygon class="h" points="298.13 220.27 323.13 220.27 323.13 245.27 298.13 220.27"/>
  <polygon class="h" points="298.13 245.27 323.13 245.27 323.13 270.27 298.13 245.27"/>
  <path class="c" d="m310.63,285.24l-25-25v74.67l.33.33,24.67,24.7.3.3h49.7v-75h-50Zm0,50.31l-.31-.31h.31v.31Z"/>
  <polygon class="h" points="98.42 204.17 118.42 189.17 88.42 149.17 98.42 204.17"/>
  <polygon class="c" points="261.84 190.49 261.84 265.49 186.84 265.49 136.84 215.49 136.84 140.49 186.84 190.49 261.84 190.49"/>
  <polygon class="e" points="261.84 190.49 186.84 190.49 136.84 140.49 211.84 140.49 261.84 190.49"/>
  <polygon class="h" points="214.34 122.48 214.34 172.48 189.34 172.48 114.34 97.48 189.34 97.48 214.34 122.48"/>
  <polygon class="j" points="212.06 59.54 212.06 109.54 187.06 109.54 112.06 34.54 187.06 34.54 212.06 59.54"/>
  <polygon class="o" points="202.42 100.82 202.42 150.82 227.42 150.82 302.42 75.82 227.42 75.82 202.42 100.82"/>
  <polygon class="f" points="190.89 50.15 203.9 98.43 228.04 91.92 280.95 0 208.53 19.51 190.89 50.15"/>
  <polygon class="h" points="227.03 330.51 227.03 305.51 277.03 305.51 227.03 330.51"/>
  <polygon class="h" points="225.89 306.14 220.75 281.68 166.71 293.03 225.89 306.14"/>
  <polygon class="o" points="227.65 323.73 220.25 299.85 172.49 314.66 227.65 323.73"/>
  <polygon class="c" points="147.11 284.03 147.11 334.03 97.11 334.03 72.11 309.03 72.11 259.03 97.11 284.03 147.11 284.03"/>
  <polygon class="l" points="225.96 311.23 225.25 286.24 277.17 284.76 225.96 311.23"/>
  <polygon class="c" points="262.75 345.18 262.75 395.18 212.75 395.18 187.75 370.18 187.75 320.18 212.75 345.18 262.75 345.18"/>
</svg>