<?xml version="1.0" encoding="UTF-8"?>
<svg id="a" data-name="grid" xmlns="http://www.w3.org/2000/svg" viewBox="0 0 1350.85 1000.85">
  <defs>
    <style>
      .c {
        stroke-width: 0px;
      }

      .d {
        stroke: #919191;
      }

      .d, .e, .f, .g, .h {
        stroke-miterlimit: 10;
      }

      .d, .f {
        fill: none;
      }

      .e {
        fill: #3ca7dd;
      }

      .e, .f, .g, .h {
        stroke: #000;
        stroke-width: 3px;
      }

      .g {
        fill: #81a5cc;
      }

      .h {
        fill: #204bc6;
      }
    </style>
  </defs>
  <line class="d" x1="700.5" y1="525.5" x2="700.5" y2="1000.5"/>
  <line class="d" x1="725.5" y1="525.5" x2="725.5" y2="1000.5"/>
  <line class="d" x1="750.5" y1="525.5" x2="750.5" y2="1000.5"/>
  <line class="d" x1="775.5" y1="525.5" x2="775.5" y2="1000.5"/>
  <line class="d" x1="800.5" y1="525.5" x2="800.5" y2="1000.5"/>
  <line class="d" x1="825.5" y1="525.5" x2="825.5" y2="1000.5"/>
  <line class="d" x1="850.5" y1="525.5" x2="850.5" y2="1000.5"/>
  <line class="d" x1="875.5" y1="525.5" x2="875.5" y2="1000.5"/>
  <line class="d" x1="900.5" y1="525.5" x2="900.5" y2="1000.5"/>
  <line class="d" x1="925.5" y1="525.5" x2="925.5" y2="1000.5"/>
  <line class="d" x1="950.5" y1="525.5" x2="950.5" y2="1000.5"/>
  <line class="d" x1="975.5" y1="525.5" x2="975.5" y2="1000.5"/>
  <line class="d" x1="1000.5" y1="525.5" x2="1000.5" y2="1000.5"/>
  <line class="d" x1="1025.5" y1="525.5" x2="1025.5" y2="1000.5"/>
  <line class="d" x1="1050.5" y1="525.5" x2="1050.5" y2="1000.5"/>
  <line class="d" x1="1075.5" y1="525.5" x2="1075.5" y2="1000.5"/>
  <line class="d" x1="1100.5" y1="525.5" x2="1100.5" y2="1000.5"/>
  <line class="d" x1="1125.5" y1="525.5" x2="1125.5" y2="1000.5"/>
  <line class="d" x1="1150.5" y1="525.5" x2="1150.5" y2="1000.5"/>
  <line class="d" x1="1175.5" y1="525.5" x2="1175.5" y2="1000.5"/>
  <line class="d" x1="1200.5" y1="525.5" x2="1200.5" y2="1000.5"/>
  <line class="d" x1="1225.5" y1="525.5" x2="1225.5" y2="1000.5"/>
  <line class="d" x1="1250.5" y1="525.5" x2="1250.5" y2="1000.5"/>
  <line class="d" x1="1275.5" y1="525.5" x2="1275.5" y2="1000.5"/>
  <line class="d" x1="1300.5" y1="525.5" x2="1300.5" y2="1000.5"/>
  <line class="d" x1="1325.5" y1="525.5" x2="1325.5" y2="1000.5"/>
  <line class="d" x1="700.5" y1="525.5" x2="1350.5" y2="525.5"/>
  <line class="d" x1="700.5" y1="550.5" x2="1350.5" y2="550.5"/>
  <line class="d" x1="700.5" y1="575.5" x2="1350.5" y2="575.5"/>
  <line class="d" x1="700.5" y1="600.5" x2="1350.5" y2="600.5"/>
  <line class="d" x1="700.5" y1="625.5" x2="1350.5" y2="625.5"/>
  <line class="d" x1="700.5" y1="650.5" x2="1350.5" y2="650.5"/>
  <line class="d" x1="700.5" y1="675.5" x2="1350.5" y2="675.5"/>
  <line class="d" x1="700.5" y1="700.5" x2="1350.5" y2="700.5"/>
  <line class="d" x1="700.5" y1="725.5" x2="1350.5" y2="725.5"/>
  <line class="d" x1="700.5" y1="750.5" x2="1350.5" y2="750.5"/>
  <line class="d" x1="700.5" y1="775.5" x2="1350.5" y2="775.5"/>
  <line class="d" x1="700.5" y1="800.5" x2="1350.5" y2="800.5"/>
  <line class="d" x1="700.5" y1="825.5" x2="1350.5" y2="825.5"/>
  <line class="d" x1="700.5" y1="850.5" x2="1350.5" y2="850.5"/>
  <line class="d" x1="700.5" y1="875.5" x2="1350.5" y2="875.5"/>
  <line class="d" x1="700.5" y1="900.5" x2="1350.5" y2="900.5"/>
  <line class="d" x1="700.5" y1="925.5" x2="1350.5" y2="925.5"/>
  <line class="d" x1="700.5" y1="950.5" x2="1350.5" y2="950.5"/>
  <line class="d" x1="700.5" y1="975.5" x2="1350.5" y2="975.5"/>
  <line class="d" x1="724.44" y1="1000.5" x2="700.5" y2="975.5"/>
  <line class="d" x1="700.5" y1="950.5" x2="750.5" y2="1000.5"/>
  <line class="d" x1="700.5" y1="925.36" x2="775.5" y2="1000.5"/>
  <line class="d" x1="800.31" y1="1000.5" x2="700.5" y2="900.5"/>
  <line class="d" x1="825.15" y1="1000.5" x2="700.5" y2="875.5"/>
  <line class="d" x1="850.21" y1="1000.5" x2="700.5" y2="850.5"/>
  <line class="d" x1="875.5" y1="1000.5" x2="700.5" y2="825.5"/>
  <line class="d" x1="900.5" y1="1000.5" x2="700.5" y2="800.5"/>
  <line class="d" x1="925.5" y1="1000.5" x2="700.5" y2="775.5"/>
  <line class="d" x1="700.5" y1="751.06" x2="950.5" y2="1000.5"/>
  <line class="d" x1="700.5" y1="725.08" x2="975.5" y2="1000.5"/>
  <line class="d" x1="700.5" y1="700.17" x2="1000.5" y2="1000.5"/>
  <line class="d" x1="1025.5" y1="1000.5" x2="700.5" y2="675.5"/>
  <line class="d" x1="700.5" y1="650.04" x2="1050.5" y2="1000.5"/>
  <line class="d" x1="1074.56" y1="1000.5" x2="700.5" y2="625.5"/>
  <line class="d" x1="700.5" y1="600.5" x2="1100.5" y2="1000.5"/>
  <line class="d" x1="1125.5" y1="1000.5" x2="700.5" y2="575.5"/>
  <line class="d" x1="700.5" y1="550.5" x2="1150.5" y2="1000.5"/>
  <line class="d" x1="1175.5" y1="1000.5" x2="700.5" y2="525.5"/>
  <line class="d" x1="750.5" y1="525.5" x2="1225.5" y2="1000.5"/>
  <line class="d" x1="1200.5" y1="1000.5" x2="725.5" y2="525.5"/>
  <line class="d" x1="1250.5" y1="1000.5" x2="775.5" y2="525.5"/>
  <line class="d" x1="800.5" y1="525.5" x2="1275.5" y2="1000.5"/>
  <line class="d" x1="1300.5" y1="1000.5" x2="825.5" y2="525.5"/>
  <line class="d" x1="875.5" y1="525.5" x2="1350.5" y2="1000.5"/>
  <line class="d" x1="1325.5" y1="1000.5" x2="850.5" y2="525.5"/>
  <line class="d" x1="900.5" y1="525.5" x2="1350.5" y2="975.5"/>
  <line class="d" x1="1350.5" y1="950.5" x2="925.5" y2="525.5"/>
  <line class="d" x1="950.5" y1="525.5" x2="1350.5" y2="925.5"/>
  <line class="d" x1="1350.5" y1="900.5" x2="975.5" y2="525.5"/>
  <line class="d" x1="1000.5" y1="525.5" x2="1350.5" y2="875.5"/>
  <line class="d" x1="1350.5" y1="850.5" x2="1025.5" y2="525.5"/>
  <line class="d" x1="1050.5" y1="525.5" x2="1350.5" y2="825.5"/>
  <line class="d" x1="1350.5" y1="800.5" x2="1075.5" y2="525.5"/>
  <line class="d" x1="1100.5" y1="525.5" x2="1350.5" y2="775.5"/>
  <line class="d" x1="1350.5" y1="750.5" x2="1125.5" y2="525.5"/>
  <line class="d" x1="1150.5" y1="525.5" x2="1350.5" y2="725.5"/>
  <line class="d" x1="1350.5" y1="700.5" x2="1175.5" y2="525.5"/>
  <line class="d" x1="1200.5" y1="525.5" x2="1350.5" y2="675.5"/>
  <line class="d" x1="1350.5" y1="650.5" x2="1225.5" y2="525.5"/>
  <line class="d" x1="1250.5" y1="525.5" x2="1350.5" y2="625.5"/>
  <line class="d" x1="1350.5" y1="600.5" x2="1275.5" y2="525.5"/>
  <line class="d" x1="1300.5" y1="525.5" x2="1350.5" y2="575.5"/>
  <line class="d" x1="1350.5" y1="550.5" x2="1325.5" y2="525.5"/>
  <line class="d" x1=".5" y1="525.5" x2=".5" y2="1000.5"/>
  <line class="d" x1="25.5" y1="525.5" x2="25.5" y2="1000.5"/>
  <line class="d" x1="50.5" y1="525.5" x2="50.5" y2="1000.5"/>
  <line class="d" x1="75.5" y1="525.5" x2="75.5" y2="1000.5"/>
  <line class="d" x1="100.5" y1="525.5" x2="100.5" y2="1000.5"/>
  <line class="d" x1="125.5" y1="525.5" x2="125.5" y2="1000.5"/>
  <line class="d" x1="150.5" y1="525.5" x2="150.5" y2="1000.5"/>
  <line class="d" x1="175.5" y1="525.5" x2="175.5" y2="1000.5"/>
  <line class="d" x1="200.5" y1="525.5" x2="200.5" y2="1000.5"/>
  <line class="d" x1="225.5" y1="525.5" x2="225.5" y2="1000.5"/>
  <line class="d" x1="250.5" y1="525.5" x2="250.5" y2="1000.5"/>
  <line class="d" x1="275.5" y1="525.5" x2="275.5" y2="1000.5"/>
  <line class="d" x1="300.5" y1="525.5" x2="300.5" y2="1000.5"/>
  <line class="d" x1="325.5" y1="525.5" x2="325.5" y2="1000.5"/>
  <line class="d" x1="350.5" y1="525.5" x2="350.5" y2="1000.5"/>
  <line class="d" x1="375.5" y1="525.5" x2="375.5" y2="1000.5"/>
  <line class="d" x1="400.5" y1="525.5" x2="400.5" y2="1000.5"/>
  <line class="d" x1="425.5" y1="525.5" x2="425.5" y2="1000.5"/>
  <line class="d" x1="450.5" y1="525.5" x2="450.5" y2="1000.5"/>
  <line class="d" x1="475.5" y1="525.5" x2="475.5" y2="1000.5"/>
  <line class="d" x1="500.5" y1="525.5" x2="500.5" y2="1000.5"/>
  <line class="d" x1="525.5" y1="525.5" x2="525.5" y2="1000.5"/>
  <line class="d" x1="550.5" y1="525.5" x2="550.5" y2="1000.5"/>
  <line class="d" x1="575.5" y1="525.5" x2="575.5" y2="1000.5"/>
  <line class="d" x1="600.5" y1="525.5" x2="600.5" y2="1000.5"/>
  <line class="d" x1="625.5" y1="525.5" x2="625.5" y2="1000.5"/>
  <line class="d" x1=".5" y1="525.5" x2="650.5" y2="525.5"/>
  <line class="d" x1=".5" y1="550.5" x2="650.5" y2="550.5"/>
  <line class="d" x1=".5" y1="575.5" x2="650.5" y2="575.5"/>
  <line class="d" x1=".5" y1="600.5" x2="650.5" y2="600.5"/>
  <line class="d" x1=".5" y1="625.5" x2="650.5" y2="625.5"/>
  <line class="d" x1=".5" y1="650.5" x2="650.5" y2="650.5"/>
  <line class="d" x1=".5" y1="675.5" x2="650.5" y2="675.5"/>
  <line class="d" x1=".5" y1="700.5" x2="650.5" y2="700.5"/>
  <line class="d" x1=".5" y1="725.5" x2="650.5" y2="725.5"/>
  <line class="d" x1=".5" y1="750.5" x2="650.5" y2="750.5"/>
  <line class="d" x1=".5" y1="775.5" x2="650.5" y2="775.5"/>
  <line class="d" x1=".5" y1="800.5" x2="650.5" y2="800.5"/>
  <line class="d" x1=".5" y1="825.5" x2="650.5" y2="825.5"/>
  <line class="d" x1=".5" y1="850.5" x2="650.5" y2="850.5"/>
  <line class="d" x1=".5" y1="875.5" x2="650.5" y2="875.5"/>
  <line class="d" x1=".5" y1="900.5" x2="650.5" y2="900.5"/>
  <line class="d" x1=".5" y1="925.5" x2="650.5" y2="925.5"/>
  <line class="d" x1=".5" y1="950.5" x2="650.5" y2="950.5"/>
  <line class="d" x1=".5" y1="975.5" x2="650.5" y2="975.5"/>
  <line class="d" x1="24.44" y1="1000.5" x2=".5" y2="975.5"/>
  <line class="d" x1=".5" y1="950.5" x2="50.5" y2="1000.5"/>
  <line class="d" x1=".5" y1="925.36" x2="75.5" y2="1000.5"/>
  <line class="d" x1="100.31" y1="1000.5" x2=".5" y2="900.5"/>
  <line class="d" x1="125.15" y1="1000.5" x2=".5" y2="875.5"/>
  <line class="d" x1="150.21" y1="1000.5" x2=".5" y2="850.5"/>
  <line class="d" x1="175.5" y1="1000.5" x2=".5" y2="825.5"/>
  <line class="d" x1="200.5" y1="1000.5" x2=".5" y2="800.5"/>
  <line class="d" x1="225.5" y1="1000.5" x2=".5" y2="775.5"/>
  <line class="d" x1=".5" y1="751.06" x2="250.5" y2="1000.5"/>
  <line class="d" x1=".5" y1="725.08" x2="275.5" y2="1000.5"/>
  <line class="d" x1=".5" y1="700.17" x2="300.5" y2="1000.5"/>
  <line class="d" x1="325.5" y1="1000.5" x2=".5" y2="675.5"/>
  <line class="d" x1=".5" y1="650.04" x2="350.5" y2="1000.5"/>
  <line class="d" x1="374.56" y1="1000.5" x2=".5" y2="625.5"/>
  <line class="d" x1=".5" y1="600.5" x2="400.5" y2="1000.5"/>
  <line class="d" x1="425.5" y1="1000.5" x2=".5" y2="575.5"/>
  <line class="d" x1=".5" y1="550.5" x2="450.5" y2="1000.5"/>
  <line class="d" x1="478.62" y1="997.38" x2="3.62" y2="522.38"/>
  <line class="d" x1="50.5" y1="525.5" x2="525.5" y2="1000.5"/>
  <line class="d" x1="500.5" y1="1000.5" x2="25.5" y2="525.5"/>
  <line class="d" x1="550.5" y1="1000.5" x2="75.5" y2="525.5"/>
  <line class="d" x1="100.5" y1="525.5" x2="575.5" y2="1000.5"/>
  <line class="d" x1="600.5" y1="1000.5" x2="125.5" y2="525.5"/>
  <line class="d" x1="175.5" y1="525.5" x2="650.5" y2="1000.5"/>
  <line class="d" x1="625.5" y1="1000.5" x2="150.5" y2="525.5"/>
  <line class="d" x1="200.5" y1="525.5" x2="650.5" y2="975.5"/>
  <line class="d" x1="650.5" y1="950.5" x2="225.5" y2="525.5"/>
  <line class="d" x1="250.5" y1="525.5" x2="650.5" y2="925.5"/>
  <line class="d" x1="650.5" y1="900.5" x2="275.5" y2="525.5"/>
  <line class="d" x1="300.5" y1="525.5" x2="650.5" y2="875.5"/>
  <line class="d" x1="650.5" y1="850.5" x2="325.5" y2="525.5"/>
  <line class="d" x1="350.5" y1="525.5" x2="650.5" y2="825.5"/>
  <line class="d" x1="650.5" y1="800.5" x2="375.5" y2="525.5"/>
  <line class="d" x1="400.5" y1="525.5" x2="650.5" y2="775.5"/>
  <line class="d" x1="650.5" y1="750.5" x2="425.5" y2="525.5"/>
  <line class="d" x1="450.5" y1="525.5" x2="650.5" y2="725.5"/>
  <line class="d" x1="650.5" y1="700.5" x2="475.5" y2="525.5"/>
  <line class="d" x1="500.5" y1="525.5" x2="650.5" y2="675.5"/>
  <line class="d" x1="650.5" y1="650.5" x2="525.5" y2="525.5"/>
  <line class="d" x1="550.5" y1="525.5" x2="650.5" y2="625.5"/>
  <line class="d" x1="650.5" y1="600.5" x2="575.5" y2="525.5"/>
  <line class="d" x1="600.5" y1="525.5" x2="650.5" y2="575.5"/>
  <line class="d" x1="650.5" y1="550.5" x2="625.5" y2="525.5"/>
  <line class="d" x1="700.5" y1=".5" x2="700.5" y2="475.5"/>
  <line class="d" x1="725.5" y1=".5" x2="725.5" y2="475.5"/>
  <line class="d" x1="750.5" y1=".5" x2="750.5" y2="475.5"/>
  <line class="d" x1="775.5" y1=".5" x2="775.5" y2="475.5"/>
  <line class="d" x1="800.5" y1=".5" x2="800.5" y2="475.5"/>
  <line class="d" x1="825.5" y1=".5" x2="825.5" y2="475.5"/>
  <line class="d" x1="850.5" y1=".5" x2="850.5" y2="475.5"/>
  <line class="d" x1="875.5" y1=".5" x2="875.5" y2="475.5"/>
  <line class="d" x1="900.5" y1=".5" x2="900.5" y2="475.5"/>
  <line class="d" x1="925.5" y1=".5" x2="925.5" y2="475.5"/>
  <line class="d" x1="950.5" y1=".5" x2="950.5" y2="475.5"/>
  <line class="d" x1="975.5" y1=".5" x2="975.5" y2="475.5"/>
  <line class="d" x1="1000.5" y1=".5" x2="1000.5" y2="475.5"/>
  <line class="d" x1="1025.5" y1=".5" x2="1025.5" y2="475.5"/>
  <line class="d" x1="1050.5" y1=".5" x2="1050.5" y2="475.5"/>
  <line class="d" x1="1075.5" y1=".5" x2="1075.5" y2="475.5"/>
  <line class="d" x1="1100.5" y1=".5" x2="1100.5" y2="475.5"/>
  <line class="d" x1="1125.5" y1=".5" x2="1125.5" y2="475.5"/>
  <line class="d" x1="1150.5" y1=".5" x2="1150.5" y2="475.5"/>
  <line class="d" x1="1175.5" y1=".5" x2="1175.5" y2="475.5"/>
  <line class="d" x1="1200.5" y1=".5" x2="1200.5" y2="475.5"/>
  <line class="d" x1="1225.5" y1=".5" x2="1225.5" y2="475.5"/>
  <line class="d" x1="1250.5" y1=".5" x2="1250.5" y2="475.5"/>
  <line class="d" x1="1275.5" y1=".5" x2="1275.5" y2="475.5"/>
  <line class="d" x1="1300.5" y1=".5" x2="1300.5" y2="475.5"/>
  <line class="d" x1="1325.5" y1=".5" x2="1325.5" y2="475.5"/>
  <line class="d" x1="700.5" y1=".5" x2="1350.5" y2=".5"/>
  <line class="d" x1="700.5" y1="25.5" x2="1350.5" y2="25.5"/>
  <line class="d" x1="700.5" y1="50.5" x2="1350.5" y2="50.5"/>
  <line class="d" x1="700.5" y1="75.5" x2="1350.5" y2="75.5"/>
  <line class="d" x1="700.5" y1="100.5" x2="1350.5" y2="100.5"/>
  <line class="d" x1="700.5" y1="125.5" x2="1350.5" y2="125.5"/>
  <line class="d" x1="700.5" y1="150.5" x2="1350.5" y2="150.5"/>
  <line class="d" x1="700.5" y1="175.5" x2="1350.5" y2="175.5"/>
  <line class="d" x1="700.5" y1="200.5" x2="1350.5" y2="200.5"/>
  <line class="d" x1="700.5" y1="225.5" x2="1350.5" y2="225.5"/>
  <line class="d" x1="700.5" y1="250.5" x2="1350.5" y2="250.5"/>
  <line class="d" x1="700.5" y1="275.5" x2="1350.5" y2="275.5"/>
  <line class="d" x1="700.5" y1="300.5" x2="1350.5" y2="300.5"/>
  <line class="d" x1="700.5" y1="325.5" x2="1350.5" y2="325.5"/>
  <line class="d" x1="700.5" y1="350.5" x2="1350.5" y2="350.5"/>
  <line class="d" x1="700.5" y1="375.5" x2="1350.5" y2="375.5"/>
  <line class="d" x1="700.5" y1="400.5" x2="1350.5" y2="400.5"/>
  <line class="d" x1="700.5" y1="425.5" x2="1350.5" y2="425.5"/>
  <line class="d" x1="700.5" y1="450.5" x2="1350.5" y2="450.5"/>
  <line class="d" x1="724.44" y1="475.5" x2="700.5" y2="450.5"/>
  <line class="d" x1="700.5" y1="425.5" x2="750.5" y2="475.5"/>
  <line class="d" x1="700.5" y1="400.36" x2="775.5" y2="475.5"/>
  <line class="d" x1="800.31" y1="475.5" x2="700.5" y2="375.5"/>
  <line class="d" x1="825.15" y1="475.5" x2="700.5" y2="350.5"/>
  <line class="d" x1="850.21" y1="475.5" x2="700.5" y2="325.5"/>
  <line class="d" x1="875.5" y1="475.5" x2="700.5" y2="300.5"/>
  <line class="d" x1="900.5" y1="475.5" x2="700.5" y2="275.5"/>
  <line class="d" x1="925.5" y1="475.5" x2="700.5" y2="250.5"/>
  <line class="d" x1="700.5" y1="226.06" x2="950.5" y2="475.5"/>
  <line class="d" x1="700.5" y1="200.08" x2="975.5" y2="475.5"/>
  <line class="d" x1="700.5" y1="175.17" x2="1000.5" y2="475.5"/>
  <line class="d" x1="1025.5" y1="475.5" x2="700.5" y2="150.5"/>
  <line class="d" x1="700.5" y1="125.04" x2="1050.5" y2="475.5"/>
  <line class="d" x1="1074.56" y1="475.5" x2="700.5" y2="100.5"/>
  <line class="d" x1="700.5" y1="75.5" x2="1100.5" y2="475.5"/>
  <line class="d" x1="1125.5" y1="475.5" x2="700.5" y2="50.5"/>
  <line class="d" x1="700.5" y1="25.5" x2="1150.5" y2="475.5"/>
  <line class="d" x1="1175.5" y1="475.5" x2="700.5" y2=".5"/>
  <line class="d" x1="750.5" y1=".5" x2="1225.5" y2="475.5"/>
  <line class="d" x1="1200.5" y1="475.5" x2="725.5" y2=".5"/>
  <line class="d" x1="1250.5" y1="475.5" x2="775.5" y2=".5"/>
  <line class="d" x1="800.5" y1=".5" x2="1275.5" y2="475.5"/>
  <line class="d" x1="1300.5" y1="475.5" x2="825.5" y2=".5"/>
  <line class="d" x1="875.5" y1=".5" x2="1350.5" y2="475.5"/>
  <line class="d" x1="1325.5" y1="475.5" x2="850.5" y2=".5"/>
  <line class="d" x1="900.5" y1=".5" x2="1350.5" y2="450.5"/>
  <line class="d" x1="1350.5" y1="425.5" x2="925.5" y2=".5"/>
  <line class="d" x1="950.5" y1=".5" x2="1350.5" y2="400.5"/>
  <line class="d" x1="1350.5" y1="375.5" x2="975.5" y2=".5"/>
  <line class="d" x1="1000.5" y1=".5" x2="1350.5" y2="350.5"/>
  <line class="d" x1="1350.5" y1="325.5" x2="1025.5" y2=".5"/>
  <line class="d" x1="1050.5" y1=".5" x2="1350.5" y2="300.5"/>
  <line class="d" x1="1350.5" y1="275.5" x2="1075.5" y2=".5"/>
  <line class="d" x1="1100.5" y1=".5" x2="1350.5" y2="250.5"/>
  <line class="d" x1="1350.5" y1="225.5" x2="1125.5" y2=".5"/>
  <line class="d" x1="1150.5" y1=".5" x2="1350.5" y2="200.5"/>
  <line class="d" x1="1350.5" y1="175.5" x2="1175.5" y2=".5"/>
  <line class="d" x1="1200.5" y1=".5" x2="1350.5" y2="150.5"/>
  <line class="d" x1="1350.5" y1="125.5" x2="1225.5" y2=".5"/>
  <line class="d" x1="1250.5" y1=".5" x2="1350.5" y2="100.5"/>
  <line class="d" x1="1350.5" y1="75.5" x2="1275.5" y2=".5"/>
  <line class="d" x1="1300.5" y1=".5" x2="1350.5" y2="50.5"/>
  <line class="d" x1="1350.5" y1="25.5" x2="1325.5" y2=".5"/>
  <g>
    <path class="c" d="m30.41,107.1v10.15h11.73v-10.15h3.17v24.26h-3.17v-11.37h-11.73v11.37h-3.13v-24.26h3.13Z"/>
    <path class="c" d="m55.36,109.76h-7.38v-2.66h17.96v2.66h-7.42v21.6h-3.17v-21.6Z"/>
    <path class="c" d="m89.09,120.71c-.18-3.38-.4-7.45-.36-10.47h-.11c-.83,2.84-1.84,5.87-3.06,9.21l-4.28,11.77h-2.38l-3.92-11.55c-1.15-3.42-2.12-6.55-2.81-9.43h-.07c-.07,3.02-.25,7.09-.47,10.73l-.65,10.4h-2.99l1.69-24.26h4l4.14,11.73c1.01,2.99,1.84,5.65,2.45,8.17h.11c.61-2.45,1.48-5.11,2.56-8.17l4.32-11.73h4l1.51,24.26h-3.06l-.61-10.65Z"/>
    <path class="c" d="m97.58,107.1h3.13v21.63h10.37v2.63h-13.5v-24.26Z"/>
  </g>
  <g>
    <path class="c" d="m32.68,76.06v-10.29l-7.67-13.97h3.56l3.42,6.69c.94,1.84,1.66,3.31,2.41,5h.07c.68-1.58,1.51-3.17,2.45-5l3.49-6.69h3.56l-8.13,13.93v10.33h-3.17Z"/>
    <path class="c" d="m59.68,67.2c0,6.44-4.46,9.25-8.67,9.25-4.72,0-8.35-3.46-8.35-8.96,0-5.83,3.82-9.25,8.64-9.25s8.39,3.64,8.39,8.96Zm-13.82.18c0,3.82,2.2,6.69,5.29,6.69s5.29-2.84,5.29-6.77c0-2.95-1.48-6.69-5.22-6.69s-5.36,3.46-5.36,6.77Z"/>
    <path class="c" d="m78.25,71.31c0,1.8.04,3.38.14,4.75h-2.81l-.18-2.84h-.07c-.83,1.4-2.66,3.24-5.76,3.24-2.74,0-6.01-1.51-6.01-7.63v-10.19h3.17v9.65c0,3.31,1.01,5.54,3.89,5.54,2.12,0,3.6-1.48,4.18-2.88.18-.47.29-1.04.29-1.62v-10.69h3.17v12.67Z"/>
    <path class="c" d="m83.51,64.07c0-2.05-.04-3.82-.14-5.44h2.77l.11,3.42h.14c.79-2.34,2.7-3.82,4.82-3.82.36,0,.61.04.9.11v2.99c-.32-.07-.65-.11-1.08-.11-2.23,0-3.82,1.69-4.25,4.07-.07.43-.14.94-.14,1.48v9.29h-3.13v-11.99Z"/>
    <path class="c" d="m102.59,72.24c1.4.86,3.46,1.58,5.62,1.58,3.2,0,5.08-1.69,5.08-4.14,0-2.27-1.3-3.56-4.57-4.82-3.96-1.4-6.41-3.46-6.41-6.88,0-3.78,3.13-6.59,7.85-6.59,2.48,0,4.28.58,5.36,1.19l-.86,2.56c-.79-.43-2.41-1.15-4.61-1.15-3.31,0-4.57,1.98-4.57,3.64,0,2.27,1.48,3.38,4.82,4.68,4.1,1.58,6.19,3.56,6.19,7.13,0,3.74-2.77,6.98-8.49,6.98-2.34,0-4.9-.68-6.19-1.55l.79-2.63Z"/>
    <path class="c" d="m124.19,53.74c.04,1.08-.76,1.94-2.02,1.94-1.12,0-1.91-.86-1.91-1.94s.83-1.98,1.98-1.98,1.94.86,1.94,1.98Zm-3.53,22.32v-17.42h3.17v17.42h-3.17Z"/>
    <path class="c" d="m132.9,53.63v5h4.54v2.41h-4.54v9.4c0,2.16.61,3.38,2.38,3.38.83,0,1.44-.11,1.84-.22l.14,2.38c-.61.25-1.58.43-2.81.43-1.48,0-2.66-.47-3.42-1.33-.9-.94-1.22-2.48-1.22-4.54v-9.5h-2.7v-2.41h2.7v-4.18l3.1-.83Z"/>
    <path class="c" d="m142.55,67.92c.07,4.28,2.81,6.05,5.98,6.05,2.27,0,3.64-.4,4.82-.9l.54,2.27c-1.12.5-3.02,1.08-5.8,1.08-5.36,0-8.57-3.53-8.57-8.78s3.1-9.4,8.17-9.4c5.69,0,7.2,5,7.2,8.21,0,.65-.07,1.15-.11,1.48h-12.24Zm9.29-2.27c.04-2.02-.83-5.15-4.39-5.15-3.2,0-4.61,2.95-4.86,5.15h9.25Z"/>
    <path class="c" d="m169.69,51.8v24.26h-3.13v-24.26h3.13Z"/>
    <path class="c" d="m175.42,63.35c0-1.8-.04-3.28-.14-4.72h2.81l.18,2.88h.07c.86-1.66,2.88-3.28,5.76-3.28,2.41,0,6.16,1.44,6.16,7.42v10.4h-3.17v-10.04c0-2.81-1.04-5.15-4.03-5.15-2.09,0-3.71,1.48-4.25,3.24-.14.4-.22.94-.22,1.48v10.47h-3.17v-12.71Z"/>
  </g>
  <g>
    <path class="c" d="m44.23,185.87c-1.15.58-3.46,1.15-6.41,1.15-6.84,0-11.99-4.32-11.99-12.27s5.15-12.74,12.67-12.74c3.02,0,4.93.65,5.76,1.08l-.76,2.56c-1.19-.58-2.88-1.01-4.9-1.01-5.69,0-9.47,3.64-9.47,10.01,0,5.94,3.42,9.75,9.32,9.75,1.91,0,3.85-.4,5.11-1.01l.65,2.48Z"/>
    <path class="c" d="m47.73,182.85c1.4.86,3.46,1.58,5.62,1.58,3.2,0,5.08-1.69,5.08-4.14,0-2.27-1.3-3.56-4.57-4.82-3.96-1.4-6.41-3.46-6.41-6.88,0-3.78,3.13-6.59,7.85-6.59,2.48,0,4.28.58,5.36,1.19l-.86,2.56c-.79-.43-2.41-1.15-4.61-1.15-3.31,0-4.57,1.98-4.57,3.64,0,2.27,1.48,3.38,4.82,4.68,4.1,1.58,6.19,3.56,6.19,7.13,0,3.74-2.77,6.98-8.49,6.98-2.34,0-4.9-.68-6.19-1.55l.79-2.63Z"/>
    <path class="c" d="m65.47,182.85c1.4.86,3.46,1.58,5.62,1.58,3.2,0,5.08-1.69,5.08-4.14,0-2.27-1.3-3.56-4.57-4.82-3.96-1.4-6.41-3.46-6.41-6.88,0-3.78,3.13-6.59,7.85-6.59,2.48,0,4.28.58,5.36,1.19l-.86,2.56c-.79-.43-2.41-1.15-4.61-1.15-3.31,0-4.57,1.98-4.57,3.64,0,2.27,1.48,3.38,4.82,4.68,4.1,1.58,6.19,3.56,6.19,7.13,0,3.74-2.77,6.98-8.49,6.98-2.34,0-4.9-.68-6.19-1.55l.79-2.63Z"/>
  </g>
  <g>
    <path class="c" d="m32.25,217.7h3.13v16.23c0,6.44-3.17,8.42-7.34,8.42-1.15,0-2.56-.25-3.35-.58l.47-2.56c.65.25,1.58.47,2.63.47,2.81,0,4.46-1.26,4.46-6.01v-15.98Z"/>
    <path class="c" d="m50.14,241.96l-.25-2.2h-.11c-.97,1.37-2.84,2.59-5.33,2.59-3.53,0-5.33-2.48-5.33-5,0-4.21,3.74-6.52,10.47-6.48v-.36c0-1.44-.4-4.03-3.96-4.03-1.62,0-3.31.5-4.54,1.3l-.72-2.09c1.44-.94,3.53-1.55,5.72-1.55,5.33,0,6.62,3.64,6.62,7.13v6.52c0,1.51.07,2.99.29,4.18h-2.88Zm-.47-8.89c-3.46-.07-7.38.54-7.38,3.92,0,2.05,1.37,3.02,2.99,3.02,2.27,0,3.71-1.44,4.21-2.92.11-.32.18-.68.18-1.01v-3.02Z"/>
    <path class="c" d="m58.78,224.54l3.42,9.79c.58,1.58,1.04,3.02,1.4,4.46h.11c.4-1.44.9-2.88,1.48-4.46l3.38-9.79h3.31l-6.84,17.42h-3.02l-6.62-17.42h3.38Z"/>
    <path class="c" d="m84.37,241.96l-.25-2.2h-.11c-.97,1.37-2.84,2.59-5.33,2.59-3.53,0-5.33-2.48-5.33-5,0-4.21,3.74-6.52,10.47-6.48v-.36c0-1.44-.4-4.03-3.96-4.03-1.62,0-3.31.5-4.54,1.3l-.72-2.09c1.44-.94,3.53-1.55,5.72-1.55,5.33,0,6.62,3.64,6.62,7.13v6.52c0,1.51.07,2.99.29,4.18h-2.88Zm-.47-8.89c-3.46-.07-7.38.54-7.38,3.92,0,2.05,1.37,3.02,2.99,3.02,2.27,0,3.71-1.44,4.21-2.92.11-.32.18-.68.18-1.01v-3.02Z"/>
    <path class="c" d="m91.75,238.15c1.4.86,3.46,1.58,5.62,1.58,3.2,0,5.08-1.69,5.08-4.14,0-2.27-1.3-3.56-4.57-4.82-3.96-1.4-6.41-3.46-6.41-6.88,0-3.78,3.13-6.59,7.85-6.59,2.48,0,4.28.58,5.36,1.19l-.86,2.56c-.79-.43-2.41-1.15-4.61-1.15-3.31,0-4.57,1.98-4.57,3.64,0,2.27,1.48,3.38,4.82,4.68,4.1,1.58,6.19,3.56,6.19,7.13,0,3.74-2.77,6.98-8.49,6.98-2.34,0-4.9-.68-6.19-1.55l.79-2.63Z"/>
    <path class="c" d="m122.46,241.31c-.83.43-2.66,1.01-5,1.01-5.26,0-8.68-3.56-8.68-8.89s3.67-9.25,9.36-9.25c1.87,0,3.53.47,4.39.9l-.72,2.45c-.76-.43-1.94-.83-3.67-.83-4,0-6.16,2.95-6.16,6.59,0,4.03,2.59,6.52,6.05,6.52,1.8,0,2.99-.47,3.89-.86l.54,2.38Z"/>
    <path class="c" d="m126.17,229.98c0-2.05-.04-3.82-.14-5.44h2.77l.11,3.42h.14c.79-2.34,2.7-3.82,4.82-3.82.36,0,.61.04.9.11v2.99c-.32-.07-.65-.11-1.08-.11-2.23,0-3.82,1.69-4.25,4.07-.07.43-.14.94-.14,1.48v9.29h-3.13v-11.99Z"/>
    <path class="c" d="m141.61,219.64c.04,1.08-.76,1.94-2.02,1.94-1.12,0-1.91-.86-1.91-1.94s.83-1.98,1.98-1.98,1.94.86,1.94,1.98Zm-3.53,22.32v-17.42h3.17v17.42h-3.17Z"/>
    <path class="c" d="m146.51,230.23c0-2.23-.07-4.03-.14-5.69h2.84l.14,2.99h.07c1.3-2.12,3.35-3.38,6.19-3.38,4.21,0,7.38,3.56,7.38,8.85,0,6.26-3.82,9.36-7.92,9.36-2.3,0-4.32-1.01-5.36-2.74h-.07v9.47h-3.13v-18.86Zm3.13,4.64c0,.47.07.9.14,1.3.58,2.2,2.48,3.71,4.75,3.71,3.35,0,5.29-2.74,5.29-6.73,0-3.49-1.84-6.48-5.18-6.48-2.16,0-4.18,1.55-4.79,3.92-.11.4-.22.86-.22,1.3v2.99Z"/>
    <path class="c" d="m170.81,219.54v5h4.54v2.41h-4.54v9.4c0,2.16.61,3.38,2.38,3.38.83,0,1.44-.11,1.84-.22l.14,2.38c-.61.25-1.58.43-2.81.43-1.48,0-2.66-.47-3.42-1.33-.9-.94-1.22-2.48-1.22-4.54v-9.5h-2.7v-2.41h2.7v-4.18l3.1-.83Z"/>
  </g>
  <rect class="e" x="225.5" y="50.5" width="387.5" height="25"/>
  <rect class="f" x="525.5" y="75.5" width="87.5" height="350"/>
  <rect class="f" x="250.5" y="100.5" width="75" height="50"/>
  <rect class="f" x="225.5" y="75.5" width="387.5" height="350"/>
  <polygon class="g" points="399.92 276.08 350.5 325.5 449.35 325.5 399.92 276.08"/>
  <circle class="g" cx="400.5" cy="375.5" r="25"/>
  <circle class="h" cx="550.5" cy="150.5" r="12.5"/>
  <line class="f" x1="350.5" y1="175.5" x2="450.5" y2="175.5"/>
  <line class="f" x1="300.5" y1="225.5" x2="500.5" y2="225.5"/>
  <line class="f" x1="363" y1="188" x2="438" y2="188"/>
  <line class="f" x1="238" y1="63" x2="313" y2="63"/>
  <line class="f" x1="388" y1="63" x2="425.5" y2="63"/>
  <line class="f" x1="463" y1="63" x2="500.5" y2="63"/>
  <line class="f" x1="538" y1="63" x2="575.5" y2="63"/>
  <line class="f" x1="575.5" y1="150.5" x2="600.5" y2="150.5"/>
  <circle class="h" cx="550.5" cy="213" r="12.5"/>
  <line class="f" x1="575.5" y1="213" x2="600.5" y2="213"/>
  <circle class="h" cx="550.5" cy="275.5" r="12.5"/>
  <line class="f" x1="575.5" y1="275.5" x2="600.5" y2="275.5"/>
  <circle class="h" cx="550.5" cy="338" r="12.5"/>
  <line class="f" x1="575.5" y1="338" x2="600.5" y2="338"/>
  <line class="f" x1="375.5" y1="200.5" x2="425.5" y2="200.5"/>
  <line class="f" x1="375.5" y1="238" x2="425.5" y2="238"/>
  <line class="f" x1="375.5" y1="250.5" x2="425.5" y2="250.5"/>
  <line class="f" x1="375.5" y1="175.5" x2="425.5" y2="175.5"/>
  <path class="f" d="m183.06,313.29c-50,37.5-100-12.5-100-12.5"/>
  <polyline class="f" points="160.67 305.89 184.79 312.47 178.22 336.59"/>
</svg>