<?xml version="1.0" encoding="UTF-8"?>
<svg id="a" data-name="grid" xmlns="http://www.w3.org/2000/svg" viewBox="0 0 650 475">
  <defs>
    <style>
      .c, .d, .e {
        stroke-width: 0px;
      }

      .d {
        fill: #25ef46;
      }

      .f {
        stroke: #919191;
        stroke-width: 5px;
      }

      .f, .g, .h {
        fill: none;
        stroke-miterlimit: 10;
      }

      .e {
        fill: #e50e0e;
      }

      .g {
        stroke: #25ef46;
      }

      .g, .h {
        stroke-width: 4px;
      }

      .h {
        stroke: #e50e0e;
      }
    </style>
  </defs>
  <polyline class="f" points="62.5 87.5 50 75 62.5 62.5"/>
  <line class="f" x1="162.5" y1="75" x2="50" y2="75"/>
  <polyline class="f" points="150 87.5 162.5 75 150 62.5"/>
  <polyline class="f" points="62.5 50 50 37.5 62.5 25"/>
  <line class="f" x1="275" y1="37.5" x2="50" y2="37.5"/>
  <polyline class="f" points="262.5 50 275 37.5 262.5 25"/>
  <polyline class="f" points="75 237.5 62.5 225 75 212.5"/>
  <line class="f" x1="175" y1="225" x2="62.5" y2="225"/>
  <polyline class="f" points="162.5 237.5 175 225 162.5 212.5"/>
  <polyline class="f" points="62.5 162.5 50 150 62.5 137.5"/>
  <line class="f" x1="125" y1="150" x2="50" y2="150"/>
  <polyline class="f" points="112.5 162.5 125 150 112.5 137.5"/>
  <polyline class="f" points="87.5 125 75 112.5 87.5 100"/>
  <line class="f" x1="125" y1="100" x2="100" y2="125"/>
  <line class="f" x1="112.5" y1="112.5" x2="187.5" y2="112.5"/>
  <polyline class="f" points="175 125 187.5 112.5 175 100"/>
  <polyline class="f" points="62.5 350 50 337.5 62.5 325"/>
  <line class="f" x1="162.5" y1="337.5" x2="50" y2="337.5"/>
  <polyline class="f" points="150 350 162.5 337.5 150 325"/>
  <polyline class="f" points="200 350 187.5 337.5 200 325"/>
  <line class="f" x1="237.5" y1="325" x2="212.5" y2="350"/>
  <line class="f" x1="225" y1="337.5" x2="300" y2="337.5"/>
  <polyline class="f" points="287.5 350 300 337.5 287.5 325"/>
  <polyline class="f" points="100 275 87.5 262.5 100 250"/>
  <line class="f" x1="200" y1="262.5" x2="87.5" y2="262.5"/>
  <polyline class="f" points="187.5 275 200 262.5 187.5 250"/>
  <polyline class="f" points="125 387.5 112.5 375 125 362.5"/>
  <line class="f" x1="162.5" y1="362.5" x2="137.5" y2="387.5"/>
  <line class="f" x1="150" y1="375" x2="225" y2="375"/>
  <polyline class="f" points="212.5 387.5 225 375 212.5 362.5"/>
  <polyline class="f" points="50 425 37.5 412.5 50 400"/>
  <line class="f" x1="87.5" y1="400" x2="62.5" y2="425"/>
  <line class="f" x1="75" y1="412.5" x2="275" y2="412.5"/>
  <polyline class="f" points="262.5 425 275 412.5 262.5 400"/>
  <polyline class="f" points="62.5 200 50 187.5 62.5 175"/>
  <line class="f" x1="100" y1="175" x2="75" y2="200"/>
  <line class="f" x1="87.5" y1="187.5" x2="125" y2="187.5"/>
  <polyline class="f" points="112.5 200 125 187.5 112.5 175"/>
  <polyline class="f" points="100 312.5 87.5 300 100 287.5"/>
  <line class="f" x1="162.5" y1="300" x2="87.5" y2="300"/>
  <polyline class="f" points="150 312.5 162.5 300 150 287.5"/>
  <polyline class="f" points="187.5 312.5 175 300 187.5 287.5"/>
  <line class="f" x1="225" y1="287.5" x2="200" y2="312.5"/>
  <line class="f" x1="212.5" y1="300" x2="250" y2="300"/>
  <polyline class="f" points="237.5 312.5 250 300 237.5 287.5"/>
  <polyline class="f" points="412.5 125 400 112.5 412.5 100"/>
  <line class="f" x1="500" y1="112.5" x2="400" y2="112.5"/>
  <polyline class="f" points="487.5 125 500 112.5 487.5 100"/>
  <polyline class="f" points="387.5 50 375 37.5 387.5 25"/>
  <line class="f" x1="475" y1="37.5" x2="375" y2="37.5"/>
  <polyline class="f" points="462.5 50 475 37.5 462.5 25"/>
  <polyline class="f" points="400 87.5 387.5 75 400 62.5"/>
  <line class="f" x1="625" y1="75" x2="387.5" y2="75"/>
  <polyline class="f" points="612.5 87.5 625 75 612.5 62.5"/>
  <polyline class="f" points="412.5 287.5 400 275 412.5 262.5"/>
  <line class="f" x1="512.5" y1="275" x2="400" y2="275"/>
  <polyline class="f" points="500 287.5 512.5 275 500 262.5"/>
  <polyline class="f" points="425 162.5 412.5 150 425 137.5"/>
  <line class="f" x1="487.5" y1="150" x2="412.5" y2="150"/>
  <polyline class="f" points="475 162.5 487.5 150 475 137.5"/>
  <polyline class="f" points="525 125 512.5 112.5 525 100"/>
  <line class="f" x1="562.5" y1="100" x2="537.5" y2="125"/>
  <line class="f" x1="550" y1="112.5" x2="612.5" y2="112.5"/>
  <polyline class="f" points="600 125 612.5 112.5 600 100"/>
  <polyline class="f" points="387.5 437.5 375 425 387.5 412.5"/>
  <line class="f" x1="425" y1="412.5" x2="400" y2="437.5"/>
  <line class="f" x1="412.5" y1="425" x2="475" y2="425"/>
  <polyline class="f" points="462.5 437.5 475 425 462.5 412.5"/>
  <polyline class="f" points="412.5 362.5 400 350 412.5 337.5"/>
  <line class="f" x1="450" y1="337.5" x2="425" y2="362.5"/>
  <line class="f" x1="437.5" y1="350" x2="512.5" y2="350"/>
  <polyline class="f" points="500 362.5 512.5 350 500 337.5"/>
  <polyline class="f" points="400 400 387.5 387.5 400 375"/>
  <line class="f" x1="437.5" y1="375" x2="412.5" y2="400"/>
  <line class="f" x1="425" y1="387.5" x2="625" y2="387.5"/>
  <polyline class="f" points="612.5 400 625 387.5 612.5 375"/>
  <polyline class="f" points="425 237.5 412.5 225 425 212.5"/>
  <line class="f" x1="462.5" y1="212.5" x2="437.5" y2="237.5"/>
  <line class="f" x1="450" y1="225" x2="487.5" y2="225"/>
  <polyline class="f" points="475 237.5 487.5 225 475 212.5"/>
  <polyline class="f" points="437.5 200 425 187.5 437.5 175"/>
  <line class="f" x1="500" y1="187.5" x2="425" y2="187.5"/>
  <polyline class="f" points="487.5 200 500 187.5 487.5 175"/>
  <polyline class="f" points="525 200 512.5 187.5 525 175"/>
  <line class="f" x1="562.5" y1="175" x2="537.5" y2="200"/>
  <line class="f" x1="550" y1="187.5" x2="587.5" y2="187.5"/>
  <polyline class="f" points="575 200 587.5 187.5 575 175"/>
  <polyline class="f" points="425 325 412.5 312.5 425 300"/>
  <line class="f" x1="487.5" y1="312.5" x2="412.5" y2="312.5"/>
  <polyline class="f" points="475 325 487.5 312.5 475 300"/>
  <polyline class="f" points="512.5 325 500 312.5 512.5 300"/>
  <line class="f" x1="550" y1="300" x2="525" y2="325"/>
  <line class="f" x1="537.5" y1="312.5" x2="575" y2="312.5"/>
  <polyline class="f" points="562.5 325 575 312.5 562.5 300"/>
  <line class="h" x1="100" y1="25" x2="75" y2="50"/>
  <line class="h" x1="125" y1="25" x2="100" y2="50"/>
  <line class="h" x1="150" y1="25" x2="125" y2="50"/>
  <line class="h" x1="175" y1="25" x2="150" y2="50"/>
  <line class="h" x1="200" y1="25" x2="175" y2="50"/>
  <line class="h" x1="225" y1="25" x2="200" y2="50"/>
  <line class="h" x1="237.5" y1="250" x2="212.5" y2="275"/>
  <line class="h" x1="237.5" y1="275" x2="212.5" y2="250"/>
  <polyline class="g" points="587.5 262.5 562.5 287.5 563.22 286.74 550 275"/>
  <line class="h" x1="225" y1="400" x2="112.5" y2="400"/>
  <line class="g" x1="512.5" y1="375" x2="400" y2="375"/>
  <line class="h" x1="250" y1="25" x2="225" y2="50"/>
  <line class="g" x1="437.5" y1="62.5" x2="412.5" y2="87.5"/>
  <line class="g" x1="462.5" y1="62.5" x2="437.5" y2="87.5"/>
  <line class="g" x1="487.5" y1="62.5" x2="462.5" y2="87.5"/>
  <line class="g" x1="512.5" y1="62.5" x2="487.5" y2="87.5"/>
  <line class="g" x1="537.5" y1="62.5" x2="512.5" y2="87.5"/>
  <line class="g" x1="562.5" y1="62.5" x2="537.5" y2="87.5"/>
  <line class="g" x1="587.5" y1="62.5" x2="562.5" y2="87.5"/>
  <rect class="h" x="37.5" y="125" width="112.5" height="87.5"/>
  <rect class="g" x="400" y="162.5" width="212.5" height="50"/>
  <circle class="e" cx="50" cy="262.5" r="12.5"/>
  <circle class="d" cx="362.5" cy="75" r="12.5"/>
  <circle class="d" cx="387.5" cy="150" r="12.5"/>
  <circle class="d" cx="387.5" cy="312.5" r="12.5"/>
  <circle class="e" cx="25" cy="337.5" r="12.5"/>
  <circle class="e" cx="25" cy="74.68" r="12.5"/>
  <path class="c" d="m372.83,299.84c-.87,0-1.69-.14-2.46-.41s-1.47-.74-2.13-1.39l-33.39-33.39c-.65-.65-1.12-1.36-1.39-2.13-.27-.76-.41-1.58-.41-2.46s.14-1.69.41-2.46c.27-.76.74-1.47,1.39-2.13l13.91-13.91c.65-.65,1.36-1.12,2.13-1.39s1.58-.41,2.46-.41,1.69.14,2.46.41,1.47.74,2.13,1.39l33.39,33.39c.65.65,1.12,1.36,1.39,2.13s.41,1.58.41,2.46-.14,1.69-.41,2.46-.74,1.47-1.39,2.13l-13.91,13.91c-.65.65-1.36,1.12-2.13,1.39s-1.58.41-2.46.41Zm0-15.55l4.75-4.75-24.06-24.06-4.75,4.75,24.06,24.06Zm-89.87,15.71c-.87,0-1.72-.16-2.54-.49s-1.56-.82-2.21-1.47l-13.75-13.75c-.65-.65-1.15-1.39-1.47-2.21s-.49-1.66-.49-2.54.16-1.69.49-2.46.82-1.47,1.47-2.13l34.7-34.7h13.91l5.57-5.57-27.01-27.01h-9.33l-19.81-19.81,18.5-18.5,19.81,19.81v9.33l27.01,27.01,18.99-18.99-7.04-7.04,9.17-9.17h-18.5l-4.58-4.58,23.24-23.24,4.58,4.58v18.5l9.17-9.17,23.24,23.24c1.86,1.86,3.27,3.96,4.26,6.3s1.47,4.83,1.47,7.45-.49,5.13-1.47,7.53c-.98,2.4-2.4,4.53-4.26,6.38l-13.91-13.91-9.17,9.17-6.88-6.88-33.88,33.88v13.75l-34.7,34.7c-.65.65-1.36,1.15-2.13,1.47s-1.58.49-2.46.49Zm0-15.71l27.83-27.83v-4.75h-4.75l-27.83,27.83,4.75,4.75Zm0,0l-4.75-4.75,2.46,2.29,2.29,2.46Zm89.87,0l4.75-4.75-4.75,4.75Z"/>
</svg>