<?xml version="1.0" encoding="UTF-8"?>
<svg id="a" data-name="grid" xmlns="http://www.w3.org/2000/svg" viewBox="0 0 650 475">
  <defs>
    <style>
      .c, .d {
        stroke-width: 0px;
      }

      .e {
        fill: #090759;
        stroke: #000;
        stroke-miterlimit: 10;
        stroke-width: 3px;
      }

      .d {
        fill: #fff;
      }
    </style>
  </defs>
  <rect class="e" x="75" y="177.14" width="125" height="125" rx="15" ry="15"/>
  <rect class="e" x="413" y="50" width="125" height="125" rx="15" ry="15"/>
  <g>
    <path class="d" d="m422.68,124.44c-.56-.56-.84-1.25-.84-2.08s.28-1.52.84-2.08c.56-.56,1.25-.84,2.08-.84s1.48.28,2.04.84c.56.56.84,1.25.84,2.08s-.28,1.52-.84,2.08c-.56.56-1.24.84-2.04.84s-1.52-.28-2.08-.84Z"/>
    <path class="d" d="m454.76,97.2v27.8h-4.56v-12.16h-13.08v12.16h-4.56v-27.8h4.56v11.92h13.08v-11.92h4.56Z"/>
    <path class="d" d="m478.72,97.2v3.72h-7.4v24.08h-4.56v-24.08h-7.44v-3.72h19.4Z"/>
    <path class="d" d="m512.6,97.2v27.8h-4.56v-19.04l-8.48,19.04h-3.16l-8.52-19.04v19.04h-4.56v-27.8h4.92l9.76,21.8,9.72-21.8h4.88Z"/>
    <path class="d" d="m523.16,121.32h9.4v3.68h-13.96v-27.8h4.56v24.12Z"/>
  </g>
  <rect class="e" x="412" y="187.5" width="125" height="125" rx="15" ry="15"/>
  <g>
    <path class="d" d="m430,262.16c-.56-.56-.84-1.25-.84-2.08s.28-1.52.84-2.08c.56-.56,1.25-.84,2.08-.84s1.48.28,2.04.84.84,1.25.84,2.08-.28,1.52-.84,2.08c-.56.56-1.24.84-2.04.84s-1.52-.28-2.08-.84Z"/>
    <path class="d" d="m440.26,241.44c1.27-2.16,2.99-3.85,5.16-5.06,2.17-1.21,4.55-1.82,7.14-1.82,2.96,0,5.59.73,7.9,2.18,2.31,1.45,3.98,3.51,5.02,6.18h-5.48c-.72-1.47-1.72-2.56-3-3.28-1.28-.72-2.76-1.08-4.44-1.08-1.84,0-3.48.41-4.92,1.24-1.44.83-2.57,2.01-3.38,3.56-.81,1.55-1.22,3.35-1.22,5.4s.41,3.85,1.22,5.4c.81,1.55,1.94,2.74,3.38,3.58,1.44.84,3.08,1.26,4.92,1.26,1.68,0,3.16-.36,4.44-1.08,1.28-.72,2.28-1.81,3-3.28h5.48c-1.04,2.67-2.71,4.72-5.02,6.16-2.31,1.44-4.94,2.16-7.9,2.16-2.61,0-5-.61-7.16-1.82-2.16-1.21-3.87-2.9-5.14-5.06-1.27-2.16-1.9-4.6-1.9-7.32s.63-5.16,1.9-7.32Z"/>
    <path class="d" d="m474.92,262.02c-1.49-.65-2.67-1.58-3.52-2.78s-1.28-2.6-1.28-4.2h4.88c.11,1.2.58,2.19,1.42,2.96.84.77,2.02,1.16,3.54,1.16s2.8-.38,3.68-1.14,1.32-1.74,1.32-2.94c0-.93-.27-1.69-.82-2.28s-1.23-1.04-2.04-1.36-1.94-.67-3.38-1.04c-1.81-.48-3.29-.97-4.42-1.46-1.13-.49-2.1-1.26-2.9-2.3-.8-1.04-1.2-2.43-1.2-4.16,0-1.6.4-3,1.2-4.2.8-1.2,1.92-2.12,3.36-2.76,1.44-.64,3.11-.96,5-.96,2.69,0,4.9.67,6.62,2.02,1.72,1.35,2.67,3.19,2.86,5.54h-5.04c-.08-1.01-.56-1.88-1.44-2.6-.88-.72-2.04-1.08-3.48-1.08-1.31,0-2.37.33-3.2,1-.83.67-1.24,1.63-1.24,2.88,0,.85.26,1.55.78,2.1.52.55,1.18.98,1.98,1.3.8.32,1.89.67,3.28,1.04,1.84.51,3.34,1.01,4.5,1.52,1.16.51,2.15,1.29,2.96,2.34.81,1.05,1.22,2.46,1.22,4.22,0,1.41-.38,2.75-1.14,4-.76,1.25-1.87,2.26-3.32,3.02s-3.17,1.14-5.14,1.14c-1.87,0-3.55-.33-5.04-.98Z"/>
    <path class="d" d="m499.08,262.02c-1.49-.65-2.67-1.58-3.52-2.78s-1.28-2.6-1.28-4.2h4.88c.11,1.2.58,2.19,1.42,2.96.84.77,2.02,1.16,3.54,1.16s2.8-.38,3.68-1.14,1.32-1.74,1.32-2.94c0-.93-.27-1.69-.82-2.28s-1.23-1.04-2.04-1.36-1.94-.67-3.38-1.04c-1.81-.48-3.29-.97-4.42-1.46-1.13-.49-2.1-1.26-2.9-2.3-.8-1.04-1.2-2.43-1.2-4.16,0-1.6.4-3,1.2-4.2.8-1.2,1.92-2.12,3.36-2.76,1.44-.64,3.11-.96,5-.96,2.69,0,4.9.67,6.62,2.02,1.72,1.35,2.67,3.19,2.86,5.54h-5.04c-.08-1.01-.56-1.88-1.44-2.6-.88-.72-2.04-1.08-3.48-1.08-1.31,0-2.37.33-3.2,1-.83.67-1.24,1.63-1.24,2.88,0,.85.26,1.55.78,2.1.52.55,1.18.98,1.98,1.3.8.32,1.89.67,3.28,1.04,1.84.51,3.34,1.01,4.5,1.52,1.16.51,2.15,1.29,2.96,2.34.81,1.05,1.22,2.46,1.22,4.22,0,1.41-.38,2.75-1.14,4-.76,1.25-1.87,2.26-3.32,3.02s-3.17,1.14-5.14,1.14c-1.87,0-3.55-.33-5.04-.98Z"/>
  </g>
  <rect class="e" x="412" y="325" width="125" height="125" rx="15" ry="15"/>
  <g>
    <path class="d" d="m446.76,399.44c-.56-.56-.84-1.25-.84-2.08s.28-1.52.84-2.08c.56-.56,1.25-.84,2.08-.84s1.48.28,2.04.84.84,1.25.84,2.08-.28,1.52-.84,2.08c-.56.56-1.24.84-2.04.84s-1.52-.28-2.08-.84Z"/>
    <path class="d" d="m471.8,372.2v20.04c0,2.48-.75,4.44-2.26,5.88-1.51,1.44-3.49,2.16-5.94,2.16s-4.43-.72-5.94-2.16c-1.51-1.44-2.26-3.4-2.26-5.88h4.6c.03,1.23.34,2.2.94,2.92.6.72,1.49,1.08,2.66,1.08s2.07-.37,2.68-1.1.92-1.7.92-2.9v-20.04h4.6Z"/>
    <path class="d" d="m483.32,399.3c-1.49-.65-2.67-1.58-3.52-2.78s-1.28-2.6-1.28-4.2h4.88c.11,1.2.58,2.19,1.42,2.96.84.77,2.02,1.16,3.54,1.16s2.8-.38,3.68-1.14,1.32-1.74,1.32-2.94c0-.93-.27-1.69-.82-2.28s-1.23-1.04-2.04-1.36-1.94-.67-3.38-1.04c-1.81-.48-3.29-.97-4.42-1.46-1.13-.49-2.1-1.26-2.9-2.3-.8-1.04-1.2-2.43-1.2-4.16,0-1.6.4-3,1.2-4.2.8-1.2,1.92-2.12,3.36-2.76s3.11-.96,5-.96c2.69,0,4.9.67,6.62,2.02,1.72,1.35,2.67,3.19,2.86,5.54h-5.04c-.08-1.01-.56-1.88-1.44-2.6s-2.04-1.08-3.48-1.08c-1.31,0-2.37.33-3.2,1-.83.67-1.24,1.63-1.24,2.88,0,.85.26,1.55.78,2.1.52.55,1.18.98,1.98,1.3.8.32,1.89.67,3.28,1.04,1.84.51,3.34,1.01,4.5,1.52,1.16.51,2.15,1.29,2.96,2.34.81,1.05,1.22,2.46,1.22,4.22,0,1.41-.38,2.75-1.14,4-.76,1.25-1.87,2.26-3.32,3.02s-3.17,1.14-5.14,1.14c-1.87,0-3.55-.33-5.04-.98Z"/>
  </g>
  <g>
    <path class="d" d="m102.26,249.44c-.56-.56-.84-1.25-.84-2.08s.28-1.52.84-2.08c.56-.56,1.25-.84,2.08-.84s1.48.28,2.04.84c.56.56.84,1.25.84,2.08s-.28,1.52-.84,2.08-1.24.84-2.04.84-1.52-.28-2.08-.84Z"/>
    <path class="d" d="m128.5,222.2v3.72h-11.8v8.2h9.2v3.72h-9.2v12.16h-4.56v-27.8h16.36Z"/>
    <path class="d" d="m137.3,222.2v27.8h-4.56v-27.8h4.56Z"/>
    <path class="d" d="m163.42,230.2c-.72-1.39-1.72-2.43-3-3.14-1.28-.71-2.76-1.06-4.44-1.06-1.84,0-3.48.41-4.92,1.24-1.44.83-2.57,2-3.38,3.52-.81,1.52-1.22,3.28-1.22,5.28s.41,3.77,1.22,5.3c.81,1.53,1.94,2.71,3.38,3.54,1.44.83,3.08,1.24,4.92,1.24,2.48,0,4.49-.69,6.04-2.08,1.55-1.39,2.49-3.27,2.84-5.64h-10.44v-3.64h15.32v3.56c-.29,2.16-1.06,4.15-2.3,5.96-1.24,1.81-2.85,3.26-4.84,4.34s-4.19,1.62-6.62,1.62c-2.61,0-5-.61-7.16-1.82-2.16-1.21-3.87-2.9-5.14-5.06s-1.9-4.6-1.9-7.32.63-5.16,1.9-7.32c1.27-2.16,2.99-3.85,5.16-5.06,2.17-1.21,4.55-1.82,7.14-1.82,2.96,0,5.59.73,7.9,2.18,2.31,1.45,3.98,3.51,5.02,6.18h-5.48Z"/>
  </g>
  <path class="c" d="m319.57,242.19h-57.07v-9.38h57.07l-26.25-26.25,6.68-6.56,37.5,37.5-37.5,37.5-6.68-6.56,26.25-26.25Z"/>
</svg>