<?xml version="1.0" encoding="UTF-8"?>
<svg id="a" data-name="grid" xmlns="http://www.w3.org/2000/svg" viewBox="0 0 650 475">
  <defs>
    <style>
      .c {
        fill: #3ca7dd;
      }

      .c, .d, .e, .f {
        stroke: #000;
        stroke-miterlimit: 10;
        stroke-width: 3px;
      }

      .d {
        fill: none;
      }

      .e {
        fill: #81a5cc;
      }

      .f {
        fill: #204bc6;
      }
    </style>
  </defs>
  <rect class="d" x="325.94" y="40.5" width="250.06" height="137.5"/>
  <rect class="d" x="387.5" y="325" width="125" height="87.5" rx="7" ry="7"/>
  <rect class="d" x="109.5" y="227" width="160.71" height="112.5"/>
  <rect class="d" x="64.29" y="87.5" width="46.94" height="87.5" rx="15" ry="15"/>
  <rect class="d" x="139.29" y="75" width="48.21" height="100" rx="15" ry="15"/>
  <rect class="d" x="212.5" y="62.5" width="50" height="112.5" rx="15" ry="15"/>
  <rect class="c" x="326" y="41.33" width="250" height="9.19"/>
  <rect class="d" x="538.5" y="50.53" width="37.5" height="127.48"/>
  <rect class="d" x="234.69" y="249.35" width="35.22" height="90.15"/>
  <rect class="d" x="334.24" y="59.72" width="27.58" height="18.39"/>
  <rect class="d" x="116.07" y="262" width="27.58" height="18.39"/>
  <rect class="d" x="334.24" y="85.96" width="27.58" height="18.39"/>
  <rect class="d" x="334.24" y="112.56" width="27.58" height="18.39"/>
  <polygon class="e" points="450.06 116.75 431.89 134.92 468.24 134.92 450.06 116.75"/>
  <circle class="e" cx="450.27" cy="156.31" r="9.19"/>
  <polygon class="e" points="237.5 118.48 220.84 135.14 254.16 135.14 237.5 118.48"/>
  <circle class="e" cx="237.69" cy="152" r="8.43"/>
  <polygon class="e" points="163.39 130.42 148.91 144.9 177.88 144.9 163.39 130.42"/>
  <circle class="e" cx="163.56" cy="159.55" r="7.33"/>
  <polygon class="e" points="88.39 138.28 76.45 150.22 100.33 150.22 88.39 138.28"/>
  <circle class="e" cx="88.53" cy="162.3" r="6.04"/>
  <circle class="f" cx="547.69" cy="78.1" r="4.6"/>
  <line class="d" x1="431.89" y1="69.76" x2="468.66" y2="69.76"/>
  <line class="d" x1="413.5" y1="95.15" x2="487.05" y2="95.15"/>
  <line class="d" x1="436.48" y1="74.36" x2="464.06" y2="74.36"/>
  <line class="d" x1="329.65" y1="45.93" x2="357.23" y2="45.93"/>
  <line class="d" x1="384.81" y1="45.93" x2="398.6" y2="45.93"/>
  <line class="d" x1="412.39" y1="45.93" x2="426.18" y2="45.93"/>
  <line class="d" x1="439.97" y1="45.93" x2="453.76" y2="45.93"/>
  <rect class="c" x="109.69" y="240.15" width="160.52" height="9.19"/>
  <line class="d" x1="113.34" y1="244.75" x2="140.92" y2="244.75"/>
  <line class="d" x1="210.94" y1="244.75" x2="224.73" y2="244.75"/>
  <line class="d" x1="230.73" y1="244.75" x2="244.52" y2="244.75"/>
  <line class="d" x1="251.16" y1="244.75" x2="264.95" y2="244.75"/>
  <line class="d" x1="556.89" y1="78.1" x2="566.08" y2="78.1"/>
  <circle class="f" cx="547.69" cy="101.09" r="4.6"/>
  <line class="d" x1="556.89" y1="101.09" x2="566.08" y2="101.09"/>
  <circle class="f" cx="547.69" cy="124.07" r="4.6"/>
  <line class="d" x1="556.89" y1="124.07" x2="566.08" y2="124.07"/>
  <circle class="f" cx="547.69" cy="147.05" r="4.6"/>
  <line class="d" x1="556.89" y1="147.05" x2="566.08" y2="147.05"/>
  <circle class="f" cx="247.29" cy="268.56" r="3.73"/>
  <line class="d" x1="254.75" y1="268.56" x2="262.22" y2="268.56"/>
  <circle class="f" cx="247.29" cy="287.23" r="3.73"/>
  <line class="d" x1="254.75" y1="287.23" x2="262.22" y2="287.23"/>
  <circle class="f" cx="247.29" cy="305.9" r="3.73"/>
  <line class="d" x1="254.75" y1="305.9" x2="262.22" y2="305.9"/>
  <circle class="f" cx="247.29" cy="324.57" r="3.73"/>
  <line class="d" x1="254.75" y1="324.57" x2="262.22" y2="324.57"/>
  <line class="d" x1="441.08" y1="78.95" x2="459.47" y2="78.95"/>
  <line class="d" x1="441.08" y1="100.74" x2="459.47" y2="100.74"/>
  <line class="d" x1="441.08" y1="105.34" x2="459.47" y2="105.34"/>
  <line class="d" x1="441.08" y1="69.76" x2="459.47" y2="69.76"/>
  <polygon class="e" points="189.86 296.57 177.2 309.22 202.51 309.22 189.86 296.57"/>
  <circle class="e" cx="189.86" cy="324.17" r="7.88"/>
  <line class="d" x1="158.34" y1="275.76" x2="221.37" y2="275.76"/>
  <line class="d" x1="178.04" y1="262.94" x2="201.67" y2="262.94"/>
  <line class="d" x1="181.98" y1="266.88" x2="197.74" y2="266.88"/>
  <line class="d" x1="181.98" y1="280.55" x2="197.74" y2="280.55"/>
  <line class="d" x1="181.98" y1="285.49" x2="197.74" y2="285.49"/>
  <line class="d" x1="181.98" y1="259" x2="197.74" y2="259"/>
  <line class="d" x1="219.11" y1="98.15" x2="255.89" y2="98.15"/>
  <line class="d" x1="223.71" y1="102.74" x2="251.29" y2="102.74"/>
  <line class="d" x1="228.31" y1="107.34" x2="246.69" y2="107.34"/>
  <line class="d" x1="228.31" y1="98.15" x2="246.69" y2="98.15"/>
  <line class="d" x1="144.11" y1="111.88" x2="180.89" y2="111.88"/>
  <line class="d" x1="148.71" y1="116.47" x2="176.29" y2="116.47"/>
  <line class="d" x1="153.31" y1="121.07" x2="171.69" y2="121.07"/>
  <line class="d" x1="153.31" y1="111.88" x2="171.69" y2="111.88"/>
  <line class="d" x1="70.01" y1="122.06" x2="106.78" y2="122.06"/>
  <line class="d" x1="74.6" y1="126.65" x2="102.18" y2="126.65"/>
  <line class="d" x1="79.2" y1="131.25" x2="97.59" y2="131.25"/>
  <line class="d" x1="79.2" y1="122.06" x2="97.59" y2="122.06"/>
  <line class="d" x1="97" y1="402" x2="109.5" y2="339.5"/>
  <line class="d" x1="270.21" y1="339.5" x2="284.5" y2="402"/>
  <line class="d" x1="97" y1="402" x2="284.5" y2="402"/>
  <polyline class="d" points="284.5 402 284.5 414.5 97 414.5 97 402"/>
  <polyline class="d" points="467.9 178 467.9 229.78 432.41 229.78 432.41 178"/>
  <path class="d" d="m495.64,265.56s-25-37.5,37.5-37.5c27.95,0-62.5-12.5-62.5-12.5"/>
  <path class="d" d="m488.5,271.57l25-12.5,37.5,25s-25,50-62.5-12.5Z"/>
  <line class="d" x1="501" y1="284.07" x2="526" y2="271.57"/>
  <line class="d" x1="513.5" y1="271.57" x2="501" y2="259.07"/>
  <circle class="d" cx="189.95" cy="232.1" r="4.57"/>
  <rect class="d" x="393.97" y="344.4" width="22.74" height="15.16"/>
  <rect class="c" x="387.5" y="331.33" width="123.09" height="7.58"/>
  <line class="d" x1="393.97" y1="335.12" x2="416.72" y2="335.12"/>
  <line class="d" x1="476.46" y1="335.12" x2="487.83" y2="335.12"/>
  <line class="d" x1="492.78" y1="335.12" x2="504.15" y2="335.12"/>
  <line class="d" x1="459.32" y1="335.12" x2="470.69" y2="335.12"/>
  <circle class="f" cx="496.87" cy="357.73" r="2.33"/>
  <line class="d" x1="501.52" y1="357.73" x2="506.17" y2="357.73"/>
  <circle class="f" cx="496.87" cy="369.35" r="2.33"/>
  <line class="d" x1="501.52" y1="369.35" x2="506.17" y2="369.35"/>
  <circle class="f" cx="496.87" cy="380.98" r="2.33"/>
  <line class="d" x1="501.52" y1="380.98" x2="506.17" y2="380.98"/>
  <circle class="f" cx="496.87" cy="392.6" r="2.33"/>
  <line class="d" x1="501.52" y1="392.6" x2="506.17" y2="392.6"/>
  <polygon class="e" points="450 389.82 439.56 400.26 460.44 400.26 450 389.82"/>
  <line class="d" x1="423.07" y1="371.82" x2="475.05" y2="371.82"/>
  <line class="d" x1="438.62" y1="356.64" x2="459.92" y2="356.64"/>
  <line class="d" x1="442.78" y1="360.61" x2="455.77" y2="360.61"/>
  <line class="d" x1="442.56" y1="375.78" x2="455.56" y2="375.78"/>
  <line class="d" x1="442.56" y1="379.85" x2="455.56" y2="379.85"/>
  <line class="d" x1="442.17" y1="352.05" x2="456.37" y2="352.05"/>
  <circle class="d" cx="237.5" cy="67.63" r="3.12"/>
  <circle class="d" cx="163.39" cy="79.91" r="3.12"/>
  <circle class="d" cx="88.39" cy="92.15" r="3.12"/>
  <rect class="c" x="212.5" y="78.31" width="50" height="9.19"/>
  <rect class="c" x="139.29" y="90.81" width="48.21" height="9.19"/>
  <rect class="c" x="64.29" y="102.74" width="46.94" height="9.19"/>
  <line class="d" x1="487.83" y1="338.91" x2="487.83" y2="412.5"/>
  <polyline class="d" points="216.58 400.89 212.56 378.11 213.13 378.11 167.15 378.11 163.13 400.89"/>
</svg>